<svg width="16" height="13" viewBox="0 0 16 13" fill="none" xmlns="http://www.w3.org/2000/svg">
<path d="M6.32021 7.77513C5.88896 7.34463 5.62646 6.75963 5.62646 6.10338C5.62646 4.78863 6.68547 3.72888 7.99947 3.72888C8.64972 3.72888 9.24822 3.99213 9.67197 4.42263" stroke="#ADA4A5" stroke-width="1.2" stroke-linecap="round" stroke-linejoin="round"/>
<path d="M10.3285 6.52417C10.1545 7.49167 9.39253 8.25517 8.42578 8.43067" stroke="#ADA4A5" stroke-width="1.2" stroke-linecap="round" stroke-linejoin="round"/>
<path d="M3.99076 10.1042C2.80051 9.16973 1.79251 7.80473 1.06201 6.10298C1.80001 4.39373 2.81476 3.02123 4.01251 2.07923C5.20276 1.13723 6.57601 0.625732 7.99951 0.625732C9.43126 0.625732 10.8038 1.14473 12.0015 2.09348" stroke="#ADA4A5" stroke-width="1.2" stroke-linecap="round" stroke-linejoin="round"/>
<path d="M13.5856 3.74304C14.1016 4.42854 14.5553 5.21979 14.9371 6.10254C13.4618 9.52029 10.8548 11.579 7.99959 11.579C7.35234 11.579 6.71409 11.474 6.10059 11.2693" stroke="#ADA4A5" stroke-width="1.2" stroke-linecap="round" stroke-linejoin="round"/>
</svg>
