<?xml version="1.0" encoding="UTF-8" standalone="no"?>
<!-- Created with Inkscape (http://www.inkscape.org/) -->

<svg
   version="1.1"
   id="svg2"
   width="4266.6665"
   height="2666.6667"
   viewBox="0 0 4266.6665 2666.6667"
   sodipodi:docname="7878.eps"
   xmlns:inkscape="http://www.inkscape.org/namespaces/inkscape"
   xmlns:sodipodi="http://sodipodi.sourceforge.net/DTD/sodipodi-0.dtd"
   xmlns="http://www.w3.org/2000/svg"
   xmlns:svg="http://www.w3.org/2000/svg">
  <defs
     id="defs6" />
  <sodipodi:namedview
     id="namedview4"
     pagecolor="#ffffff"
     bordercolor="#000000"
     borderopacity="0.25"
     inkscape:showpageshadow="2"
     inkscape:pageopacity="0.0"
     inkscape:pagecheckerboard="0"
     inkscape:deskcolor="#d1d1d1" />
  <g
     id="g8"
     inkscape:groupmode="layer"
     inkscape:label="ink_ext_XXXXXX"
     transform="matrix(1.3333333,0,0,-1.3333333,0,2666.6667)">
    <g
       id="g10"
       transform="scale(0.1)">
      <path
         d="M 0,0 H 32000 V 20000 H 0 Z"
         style="fill:#ffffff;fill-opacity:1;fill-rule:nonzero;stroke:none"
         id="path12" />
      <path
         d="m 5478.1,2374.6 c 0,0 -2720.62,1235.9 -1462.4,5435.8 603.93,2015.8 2427.56,2063.9 4618.83,4371.7 1352.13,1424 482.24,5776.2 7142.17,5461.5 8305.1,-392.4 10476,-6844.1 10511.9,-7137.7 124.4,-1019.6 651.8,-1643.4 1227.5,-2228.8 175.5,-178.5 355.4,-353.2 529.7,-534.6 21.4,-22.1 42.7,-44.5 63.9,-66.9 218.2,-231.1 425.8,-474.7 602.4,-750.9 585.1,-915.3 831.3,-2189.8 5.7,-4562.5 l -23239.7,12.4"
         style="fill:#ebf3fa;fill-opacity:1;fill-rule:nonzero;stroke:none"
         id="path14" />
      <path
         d="M 14641.4,2417.2 H 11150 v 9460.1 h 3491.4 V 2417.2"
         style="fill:#b6d1f8;fill-opacity:1;fill-rule:nonzero;stroke:none"
         id="path16" />
      <path
         d="m 5325.05,8446.5 c 376.16,859.4 1845.76,354.1 1845.76,354.1 0,0 792.41,-1720.5 1085.38,-1802.3 292.98,-81.9 -390.27,1603.2 -390.27,1603.2 586.77,-30.3 1955.02,-959.2 1955.02,-959.2 0,0 -366.07,-1814.7 -61.96,-1821.9 304.12,-7.2 242.12,1623.3 242.12,1623.3 534.7,-251.4 959.8,-982.4 959.8,-982.4 494.4,-1160.9 -1021.94,-1735.9 -1021.94,-1735.9 0,0 -113.29,-631.6 169.94,-1417.7 h 0.1 c 0,0 68.3,-147.6 124.2,-389.3 l -152.6,22.7 c -6.4,42.8 -14.2,84.4 -23.8,124.7 l -0.2,0.7 -0.4,1.7 c -6.9,25.2 -17,61 -29.6,104.6 v 0.2 l -0.1,0.2 c -33,98.2 -54.44,170.4 -67.11,222 l -0.08,0.5 c -96.96,307.3 -242.52,710.6 -365.07,809 0,0 20.43,21.2 43.11,65.1 -13.75,-20.8 -28.08,-42.4 -43.11,-65.1 -344.72,-520.8 -1664.74,-419.3 -2370.16,-161.5 -705.41,257.9 -357.6,415.8 83.92,690.4 441.52,274.7 1249.4,64.4 1511.45,158.9 262.04,94.4 -72.99,277.9 -563.67,312.9 -490.7,35.1 -805.62,-413.9 -1600.42,-371.6 -794.79,42.3 -1171.98,1605.4 -1171.98,1605.4 516.05,-248.7 1530.83,-94.9 1595.98,86.1 65.15,181.1 -1374.35,376.7 -1589.9,466.1 -215.55,89.4 -540.58,595.6 -164.41,1455.1"
         style="fill:#dfebfd;fill-opacity:1;fill-rule:nonzero;stroke:none"
         id="path18" />
      <path
         d="m 24285.5,13371.9 c -386.5,883 -1896.4,363.8 -1896.4,363.8 0,0 -814.2,-1767.6 -1115.2,-1851.8 -301,-84 401,1647.2 401,1647.2 -602.9,-31.1 -2008.7,-985.5 -2008.7,-985.5 0,0 376.1,-1864.4 63.7,-1871.8 -312.5,-7.5 -248.8,1667.8 -248.8,1667.8 -549.4,-258.3 -986.1,-1009.4 -986.1,-1009.4 -507.9,-1192.8 1050,-1783.5 1050,-1783.5 0,0 116.4,-648.9 -174.7,-1456.6 v 0 c 0,0 -70.3,-151.6 -127.6,-400 l 156.8,23.3 c 6.5,44 14.6,86.7 24.4,128.1 l 0.2,0.7 0.4,1.8 c 7.1,25.9 17.4,62.6 30.4,107.5 v 0.2 l 0.1,0.2 c 33.9,100.9 56,175 69,228.1 v 0.5 c 99.7,315.7 249.2,730.1 375.1,831.1 0,0 -21,21.9 -44.3,67 14.2,-21.4 28.9,-43.6 44.3,-67 354.2,-535 1710.5,-430.7 2435.2,-165.8 724.8,264.9 367.5,427.2 -86.2,709.3 -453.6,282.2 -1283.7,66.2 -1552.9,163.2 -269.2,97 75,285.6 579.1,321.6 504.2,36 827.8,-425.3 1644.4,-381.8 816.6,43.4 1204.1,1649.4 1204.1,1649.4 -530.2,-255.5 -1572.8,-97.5 -1639.8,88.5 -66.9,186 1412.1,387 1633.6,478.9 221.4,91.8 555.4,612 168.9,1495"
         style="fill:#dfebfd;fill-opacity:1;fill-rule:nonzero;stroke:none"
         id="path20" />
      <path
         d="m 6657.46,3967.9 c 0,0 -1993.62,-82.9 -2432,-1080.2 0,0 -80.71,-225.3 234.85,-262.2 315.56,-36.9 1273.41,1156 2197.15,1266.4 v 76"
         style="fill:#82b378;fill-opacity:1;fill-rule:nonzero;stroke:none"
         id="path22" />
      <path
         d="m 6657.46,4049.1 c 0,0 -1095.62,986.4 -1931.46,640.1 -835.83,-346.4 584.96,-372.2 1009.03,-444.3 424.07,-72.1 922.43,-277 922.43,-277 v 81.2"
         style="fill:#82b378;fill-opacity:1;fill-rule:nonzero;stroke:none"
         id="path24" />
      <path
         d="m 6629.22,3814.1 c 0,0 -998.5,-337.7 -829.07,-877.6 169.43,-540 829.07,877.6 829.07,877.6"
         style="fill:#82b378;fill-opacity:1;fill-rule:nonzero;stroke:none"
         id="path26" />
      <path
         d="m 14559.7,2730.5 v 0 c -21.3,-183.1 -164.5,-322.2 -332,-322.5 l -6964.86,-15.8 c -485.23,56.4 -831.41,539.8 -769.29,1074.3 l 43.58,374.9 c 65.98,567.5 541.6,982.9 1056.94,923 L 14340.5,3077.5 c 143.8,-36 238,-185.1 219.2,-347"
         style="fill:#f99746;fill-opacity:1;fill-rule:nonzero;stroke:none"
         id="path28" />
      <path
         d="m 7717.32,3642.5 -56.29,-484.4 c -1.73,-14.8 -15.3,-25.6 -30.15,-23.8 l -9.25,1.1 c -14.86,1.7 -25.59,15.2 -23.87,30.1 l 56.3,484.3 c 1.72,14.9 15.29,25.6 30.14,23.9 l 9.25,-1.1 c 14.86,-1.7 25.6,-15.3 23.87,-30.1"
         style="fill:#ed7d2b;fill-opacity:1;fill-rule:nonzero;stroke:none"
         id="path30" />
      <path
         d="m 8149.86,3160.6 -56.3,-484.3 c -1.72,-14.8 -15.29,-25.6 -30.14,-23.8 l -9.25,1 c -14.85,1.8 -25.6,15.3 -23.87,30.2 l 56.3,484.3 c 1.73,14.9 15.29,25.6 30.15,23.9 l 9.25,-1.1 c 14.85,-1.7 25.59,-15.3 23.86,-30.2"
         style="fill:#ed7d2b;fill-opacity:1;fill-rule:nonzero;stroke:none"
         id="path32" />
      <path
         d="m 9519.19,3642.5 -56.3,-484.4 c -1.73,-14.8 -15.29,-25.6 -30.15,-23.8 l -9.24,1.1 c -14.86,1.7 -25.6,15.2 -23.88,30.1 l 56.3,484.3 c 1.73,14.9 15.3,25.6 30.15,23.9 l 9.25,-1.1 c 14.86,-1.7 25.59,-15.3 23.87,-30.1"
         style="fill:#ed7d2b;fill-opacity:1;fill-rule:nonzero;stroke:none"
         id="path34" />
      <path
         d="m 9707.61,3141.8 -56.3,-484.3 c -1.73,-14.9 -15.29,-25.6 -30.15,-23.9 l -9.25,1.1 c -14.85,1.7 -25.59,15.3 -23.86,30.1 l 56.3,484.4 c 1.72,14.8 15.29,25.6 30.14,23.8 l 9.25,-1 c 14.85,-1.8 25.6,-15.3 23.87,-30.2"
         style="fill:#ed7d2b;fill-opacity:1;fill-rule:nonzero;stroke:none"
         id="path36" />
      <path
         d="m 10116,3782.7 -56.3,-484.4 c -1.8,-14.8 -15.3,-25.5 -30.2,-23.8 l -9.2,1 c -14.9,1.8 -25.63,15.3 -23.9,30.2 l 56.3,484.3 c 1.7,14.9 15.3,25.6 30.1,23.9 l 9.3,-1.1 c 14.9,-1.7 25.6,-15.3 23.9,-30.1"
         style="fill:#ed7d2b;fill-opacity:1;fill-rule:nonzero;stroke:none"
         id="path38" />
      <path
         d="m 10898.4,3600.4 -35.7,-307.2 c -1.4,-12 -12.4,-20.7 -24.4,-19.3 l -19.5,2.3 c -12.1,1.3 -20.8,12.3 -19.4,24.4 l 35.7,307.1 c 1.4,12.1 12.4,20.8 24.4,19.4 l 19.6,-2.3 c 12,-1.4 20.7,-12.4 19.3,-24.4"
         style="fill:#ed7d2b;fill-opacity:1;fill-rule:nonzero;stroke:none"
         id="path40" />
      <path
         d="m 10997.2,3151.9 -35.7,-307.2 c -1.4,-12.1 -12.3,-20.7 -24.4,-19.3 l -19.5,2.2 c -12,1.4 -20.7,12.4 -19.3,24.4 l 35.7,307.2 c 1.4,12 12.4,20.7 24.4,19.3 l 19.5,-2.2 c 12,-1.4 20.7,-12.4 19.3,-24.4"
         style="fill:#ed7d2b;fill-opacity:1;fill-rule:nonzero;stroke:none"
         id="path42" />
      <path
         d="m 11370.4,3617.1 -40.6,-349.2 c -1.5,-12.7 -13.1,-22 -25.9,-20.5 l -16.8,2 c -12.8,1.4 -22.1,13.1 -20.6,25.9 l 40.6,349.2 c 1.5,12.7 13.2,22 25.9,20.5 l 16.9,-2 c 12.7,-1.4 22,-13.1 20.5,-25.9"
         style="fill:#ed7d2b;fill-opacity:1;fill-rule:nonzero;stroke:none"
         id="path44" />
      <path
         d="m 11818.1,3218.8 -40.6,-349.2 c -1.5,-12.8 -13.1,-22 -25.9,-20.5 l -16.8,1.9 c -12.8,1.5 -22,13.2 -20.6,26 l 40.6,349.1 c 1.5,12.8 13.2,22 26,20.6 l 16.8,-2 c 12.8,-1.5 22,-13.1 20.5,-25.9"
         style="fill:#ed7d2b;fill-opacity:1;fill-rule:nonzero;stroke:none"
         id="path46" />
      <path
         d="m 12167.6,3389.8 -40.6,-349.2 c -1.5,-12.7 -13.1,-22 -25.9,-20.5 l -16.8,2 c -12.8,1.4 -22,13.1 -20.5,25.9 l 40.6,349.2 c 1.4,12.7 13.1,22 25.9,20.5 l 16.8,-2 c 12.8,-1.5 22,-13.1 20.5,-25.9"
         style="fill:#ed7d2b;fill-opacity:1;fill-rule:nonzero;stroke:none"
         id="path48" />
      <path
         d="m 12306.9,2919.4 -40.6,-349.1 c -1.4,-12.8 -13.1,-22 -25.9,-20.6 l -16.8,2 c -12.8,1.5 -22,13.1 -20.5,25.9 l 40.6,349.2 c 1.4,12.8 13.1,22 25.9,20.5 l 16.8,-1.9 c 12.8,-1.5 22,-13.2 20.5,-26"
         style="fill:#ed7d2b;fill-opacity:1;fill-rule:nonzero;stroke:none"
         id="path50" />
      <path
         d="m 11964.3,2725.1 -18.8,-161.7 c -1,-9 -9.3,-15.5 -18.3,-14.5 l -30.5,3.6 c -9,1 -15.5,9.3 -14.4,18.3 l 18.7,161.7 c 1.1,9 9.3,15.5 18.4,14.5 l 30.4,-3.5 c 9,-1.1 15.6,-9.3 14.5,-18.4"
         style="fill:#ed7d2b;fill-opacity:1;fill-rule:nonzero;stroke:none"
         id="path52" />
      <path
         d="m 11678,3509.8 -18.8,-161.7 c -1.1,-9.1 -9.3,-15.6 -18.3,-14.5 l -30.5,3.5 c -9,1.1 -15.5,9.3 -14.5,18.3 l 18.8,161.7 c 1,9.1 9.3,15.6 18.3,14.5 l 30.5,-3.5 c 9,-1.1 15.5,-9.3 14.5,-18.3"
         style="fill:#ed7d2b;fill-opacity:1;fill-rule:nonzero;stroke:none"
         id="path54" />
      <path
         d="m 11453.2,2961.1 -40.6,-349.2 c -1.5,-12.8 -13.1,-22 -25.9,-20.5 l -16.8,1.9 c -12.8,1.5 -22,13.2 -20.5,25.9 l 40.6,349.2 c 1.4,12.8 13.1,22 25.9,20.5 l 16.8,-1.9 c 12.8,-1.5 22,-13.2 20.5,-25.9"
         style="fill:#ed7d2b;fill-opacity:1;fill-rule:nonzero;stroke:none"
         id="path56" />
      <path
         d="m 10552.8,2940.1 -35.7,-307.2 c -1.4,-12 -12.4,-20.7 -24.4,-19.3 l -19.6,2.2 c -12,1.4 -20.7,12.4 -19.3,24.4 l 35.7,307.2 c 1.4,12.1 12.4,20.7 24.4,19.3 l 19.6,-2.2 c 12,-1.4 20.7,-12.4 19.3,-24.4"
         style="fill:#ed7d2b;fill-opacity:1;fill-rule:nonzero;stroke:none"
         id="path58" />
      <path
         d="M 7400.61,3359.2 7321.88,2682 c -2.02,-17.4 -17.91,-30 -35.31,-28 -17.4,2.1 -29.97,17.9 -27.95,35.3 l 78.72,677.3 c 2.03,17.4 17.91,29.9 35.31,27.9 17.4,-2 29.98,-17.9 27.96,-35.3"
         style="fill:#ed7d2b;fill-opacity:1;fill-rule:nonzero;stroke:none"
         id="path60" />
      <path
         d="m 8079.73,4196.7 -35.95,-309.3 c -1.41,-12.1 -12.48,-20.9 -24.6,-19.5 l -19.19,2.3 c -12.12,1.4 -20.88,12.5 -19.48,24.6 l 35.95,309.2 c 1.41,12.1 12.48,20.9 24.6,19.5 l 19.19,-2.2 c 12.12,-1.4 20.89,-12.5 19.48,-24.6"
         style="fill:#ed7d2b;fill-opacity:1;fill-rule:nonzero;stroke:none"
         id="path62" />
      <path
         d="m 8830.85,4196.7 -35.95,-309.3 c -1.4,-12.1 -12.47,-20.9 -24.6,-19.5 l -19.19,2.3 c -12.12,1.4 -20.88,12.5 -19.47,24.6 l 35.95,309.2 c 1.4,12.1 12.47,20.9 24.59,19.5 l 19.2,-2.2 c 12.12,-1.4 20.88,-12.5 19.47,-24.6"
         style="fill:#ed7d2b;fill-opacity:1;fill-rule:nonzero;stroke:none"
         id="path64" />
      <path
         d="m 8506.53,3695.1 -35.94,-309.2 c -1.42,-12.1 -12.48,-20.9 -24.6,-19.5 l -19.2,2.2 c -12.12,1.4 -20.88,12.5 -19.47,24.6 l 35.95,309.3 c 1.41,12.1 12.47,20.9 24.6,19.5 l 19.19,-2.3 c 12.11,-1.4 20.88,-12.5 19.47,-24.6"
         style="fill:#ed7d2b;fill-opacity:1;fill-rule:nonzero;stroke:none"
         id="path66" />
      <path
         d="m 6950.44,4196.7 -35.95,-309.3 c -1.41,-12.1 -12.48,-20.9 -24.6,-19.5 l -19.19,2.3 c -12.12,1.4 -20.89,12.5 -19.47,24.6 l 35.94,309.2 c 1.41,12.1 12.48,20.9 24.6,19.5 l 19.19,-2.2 c 12.12,-1.4 20.89,-12.5 19.48,-24.6"
         style="fill:#ed7d2b;fill-opacity:1;fill-rule:nonzero;stroke:none"
         id="path68" />
      <path
         d="M 6950.44,3455.2 6914.49,3146 c -1.41,-12.2 -12.48,-20.9 -24.6,-19.5 l -19.19,2.2 c -12.12,1.4 -20.89,12.5 -19.47,24.6 l 35.94,309.3 c 1.41,12.1 12.48,20.8 24.6,19.4 l 19.19,-2.2 c 12.12,-1.4 20.89,-12.5 19.48,-24.6"
         style="fill:#ed7d2b;fill-opacity:1;fill-rule:nonzero;stroke:none"
         id="path70" />
      <path
         d="M 7283.53,4027.8 7232.98,3593 c -1.64,-14.2 -14.54,-24.4 -28.68,-22.7 l -11.87,1.4 c -14.13,1.6 -24.35,14.5 -22.71,28.6 l 50.54,434.8 c 1.65,14.2 14.55,24.4 28.69,22.8 l 11.87,-1.4 c 14.13,-1.7 24.35,-14.6 22.71,-28.7"
         style="fill:#ed7d2b;fill-opacity:1;fill-rule:nonzero;stroke:none"
         id="path72" />
      <path
         d="m 7622.81,4568.9 -50.55,-434.8 c -1.64,-14.1 -14.55,-24.3 -28.68,-22.7 l -11.88,1.4 c -14.13,1.6 -24.35,14.5 -22.71,28.7 l 50.55,434.8 c 1.64,14.1 14.55,24.3 28.68,22.7 l 11.88,-1.4 c 14.13,-1.6 24.35,-14.5 22.71,-28.7"
         style="fill:#ed7d2b;fill-opacity:1;fill-rule:nonzero;stroke:none"
         id="path74" />
      <path
         d="m 8749.05,3237.4 -59.8,-514.4 c -1.77,-15.3 -15.72,-26.3 -31,-24.6 l -7.71,0.9 c -15.28,1.8 -26.33,15.7 -24.55,31 l 59.8,514.5 c 1.78,15.2 15.73,26.3 31.01,24.5 l 7.71,-0.9 c 15.28,-1.7 26.32,-15.7 24.54,-31"
         style="fill:#ed7d2b;fill-opacity:1;fill-rule:nonzero;stroke:none"
         id="path76" />
      <path
         d="m 9250.64,4052.4 -78.72,-677.2 c -2.03,-17.4 -17.92,-30 -35.31,-28 -17.4,2.1 -29.98,18 -27.96,35.3 l 78.72,677.3 c 2.03,17.4 17.92,30 35.32,27.9 17.39,-2 29.97,-17.9 27.95,-35.3"
         style="fill:#ed7d2b;fill-opacity:1;fill-rule:nonzero;stroke:none"
         id="path78" />
      <path
         d="m 14641.4,11877.3 c 0,-334.2 -781.6,-605.2 -1745.7,-605.2 -964.1,0 -1745.7,271 -1745.7,605.2 0,334.2 781.6,605.1 1745.7,605.1 964.1,0 1745.7,-270.9 1745.7,-605.1"
         style="fill:#c2dbfd;fill-opacity:1;fill-rule:nonzero;stroke:none"
         id="path80" />
      <path
         d="M 19032,2417.2 H 15540.6 V 13673.4 H 19032 V 2417.2"
         style="fill:#f2c5a0;fill-opacity:1;fill-rule:nonzero;stroke:none"
         id="path82" />
      <path
         d="m 19032,13673.4 c 0,-334.2 -781.5,-605.2 -1745.7,-605.2 -964.1,0 -1745.7,271 -1745.7,605.2 0,334.2 781.6,605.2 1745.7,605.2 964.2,0 1745.7,-271 1745.7,-605.2"
         style="fill:#f5d1b7;fill-opacity:1;fill-rule:nonzero;stroke:none"
         id="path84" />
      <path
         d="m 20083.7,2417.2 h 2874.7 v 6651.4 h -2874.7 z"
         style="fill:#d8e3b7;fill-opacity:1;fill-rule:nonzero;stroke:none"
         id="path86" />
      <path
         d="m 22958.4,9068.6 c 0,-334.2 -643.5,-605.2 -1437.3,-605.2 -793.8,0 -1437.3,271 -1437.3,605.2 0,334.2 643.5,605.1 1437.3,605.1 793.8,0 1437.3,-270.9 1437.3,-605.1"
         style="fill:#dce9bf;fill-opacity:1;fill-rule:nonzero;stroke:none"
         id="path88" />
      <path
         d="m 27180.9,6163.3 v -3134 c 0,-338 -274,-612.1 -612.1,-612.1 h -5060.5 c -338.1,0 -612.2,274.1 -612.2,612.1 v 588.3 c 143.7,46.6 259.6,171.1 259.6,323.6 0,160.6 -83.7,350.6 -259.6,371.2 v 1817.2 c 54.7,14.6 106.8,45.2 145.8,87.5 82.6,89.6 69.7,239.3 -5.2,336.5 112.3,135.6 281.9,221.8 471.6,221.8 h 5060.5 c 338.1,0 612.1,-274 612.1,-612.1"
         style="fill:#ffa412;fill-opacity:1;fill-rule:nonzero;stroke:none"
         id="path90" />
      <path
         d="M 24670.6,6284.7 V 2907.9 c 0,-271 -219.7,-490.7 -490.7,-490.7 h -3283.8 v 1200.4 c 143.7,46.6 259.6,171.1 259.6,323.6 0,160.6 -83.7,350.6 -259.6,371.2 V 4683 c 56.7,5.5 112.8,23.4 165.5,51.1 162.5,85.8 290.1,265.1 290.1,462.5 0,232.3 -223.6,404.6 -455.6,421.8 v 511.2 c 54.7,14.6 106.8,45.2 145.8,87.5 82.6,89.6 69.7,239.3 -5.2,336.5 -9.3,12.1 -19.5,23.3 -30.6,33.5 -32.2,29.7 -70.3,49.1 -110,58.7 v 129.6 h 3283.8 c 271,0 490.7,-219.7 490.7,-490.7"
         style="fill:#ffb93e;fill-opacity:1;fill-rule:nonzero;stroke:none"
         id="path92" />
      <path
         d="m 22822.5,5083.1 c 0,-197.4 -127.6,-376.7 -290.1,-462.5 -64.2,-33.8 -133.8,-53.1 -203.1,-53.1 -112.4,0 -215.1,41.8 -293.2,110.8 l -0.5,0.5 c -91.9,81.2 -149.8,200 -149.8,332.2 0,245 198.5,495.2 443.5,495.2 244.9,0 493.2,-178.3 493.2,-423.1"
         style="fill:#ffa412;fill-opacity:1;fill-rule:nonzero;stroke:none"
         id="path94" />
      <path
         d="m 22329.3,4567.5 c -112.4,0 -215.1,41.8 -293.2,110.8 l -0.5,0.5 v 0 c -62,68.2 -99.8,158.9 -99.8,258.3 0,212 172,428.8 384,428.8 212.2,0 427.3,-154.4 427.3,-366.4 0,-155.8 -91.9,-298.6 -214.7,-378.9 v 0 c -64.2,-33.8 -133.8,-53.1 -203.1,-53.1"
         style="fill:#ffaf28;fill-opacity:1;fill-rule:nonzero;stroke:none"
         id="path96" />
      <path
         d="m 21518.3,5873.9 c -81.2,74.8 -106.7,195.2 -80.4,294.5 10.4,39.3 28.8,75.2 55,103.7 42.6,46.3 98.7,72.7 156.7,78.7 h 0.4 c 68.2,7.1 138.9,-14.1 193.4,-64.2 100.8,-92.7 128.5,-269.2 35.7,-370 -92.7,-100.7 -260.1,-135.4 -360.8,-42.7"
         style="fill:#ffa412;fill-opacity:1;fill-rule:nonzero;stroke:none"
         id="path98" />
      <path
         d="m 21638,5889.8 c -45.9,0 -90.4,14.5 -125.6,46.8 -64.1,59 -88,150.9 -74.5,231.8 10.4,39.3 28.8,75.2 55,103.7 42.6,46.3 98.7,72.7 156.7,78.7 h 0.4 c 51.5,-0.3 103.1,-19.1 144,-56.7 87.3,-80.3 111.3,-233.2 31,-320.4 -48,-52.1 -119,-83.9 -187,-83.9"
         style="fill:#ffaf28;fill-opacity:1;fill-rule:nonzero;stroke:none"
         id="path100" />
      <path
         d="m 23702.1,5738.8 c -89.3,-102.7 -236.9,-138.3 -360.2,-109.4 -48.8,11.5 -93.7,32.9 -129.8,64.3 -58.5,50.9 -93,119.1 -102.4,190.4 l -0.1,0.4 c -11.1,83.9 12.5,171.9 72.4,240.7 110.8,127.5 327.4,167.9 454.9,57 127.4,-110.8 176.1,-315.9 65.2,-443.4"
         style="fill:#ffa412;fill-opacity:1;fill-rule:nonzero;stroke:none"
         id="path102" />
      <path
         d="m 23387,5626.4 c -15.2,0 -30.3,1 -45.1,3 v 0 c -48.8,11.5 -93.7,32.9 -129.8,64.3 -58.5,50.9 -93,119.1 -102.4,190.4 l -0.1,0.4 v 0 c -1.4,63.6 20,127.9 64.9,179.6 57.6,66.2 148.1,105.3 235.1,105.3 58.1,0 114.7,-17.5 158.9,-55.9 110.4,-96 152.5,-273.7 56.5,-384 -60,-69.1 -150.5,-103.1 -238,-103.1"
         style="fill:#ffaf28;fill-opacity:1;fill-rule:nonzero;stroke:none"
         id="path104" />
      <path
         d="m 23836.9,4127.3 c -61.1,-162.3 -221.6,-270.2 -381.8,-290.4 -63.3,-7.9 -126.5,-2.3 -183.5,19.2 -92.4,34.8 -163.9,101 -206.7,181.9 l -0.3,0.6 c -50.4,95.2 -61.2,210.8 -20.3,319.5 75.9,201.5 316.6,345.7 518,269.9 201.4,-75.9 350.4,-299.3 274.6,-500.7"
         style="fill:#ffa412;fill-opacity:1;fill-rule:nonzero;stroke:none"
         id="path106" />
      <path
         d="m 23401.1,3833.5 c -44.8,0 -88.7,7.3 -129.5,22.6 -92.4,34.8 -163.9,101 -206.7,181.9 l -0.3,0.6 v 0 c -29.8,75.3 -32.9,161.5 -2.1,243.3 53.5,142.1 202,251.4 349.5,251.4 33.4,0 66.9,-5.6 99.1,-17.8 174.5,-65.7 303.5,-259.2 237.9,-433.6 -48.3,-128.1 -168,-217.1 -293.9,-245 v 0 c -18.1,-2.3 -36.1,-3.4 -54,-3.4"
         style="fill:#ffaf28;fill-opacity:1;fill-rule:nonzero;stroke:none"
         id="path108" />
      <path
         d="m 23222.7,3233.3 c 22,-103.1 -24.6,-211 -99.9,-273.9 -29.8,-24.8 -63.9,-42.6 -100.1,-50.4 -58.7,-12.5 -117,-2.2 -165.5,25.2 l -0.3,0.2 c -57,32.1 -100.5,87.7 -115.3,156.7 -27.3,127.9 48.4,280.7 176.3,308.1 127.9,27.3 277.5,-38.1 304.8,-165.9"
         style="fill:#ffa412;fill-opacity:1;fill-rule:nonzero;stroke:none"
         id="path110" />
      <path
         d="m 22972.9,2903.7 c -41.3,0 -81,10.9 -115.7,30.5 l -0.3,0.2 v 0 c -40,28.7 -69.9,71.8 -81,123.7 -23.6,110.7 42,243.1 152.7,266.7 16.8,3.6 34,5.4 51.1,5.4 96.5,0 192.8,-55 212.9,-149 17.4,-81.3 -14.6,-166.2 -69.8,-221.8 v 0 c -29.8,-24.8 -63.9,-42.6 -100.1,-50.4 -16.7,-3.5 -33.4,-5.3 -49.8,-5.3"
         style="fill:#ffaf28;fill-opacity:1;fill-rule:nonzero;stroke:none"
         id="path112" />
      <path
         d="m 24355.7,5535.5 c 64.2,-65.9 79.9,-167.2 53.6,-248.7 -10.4,-32.2 -27.4,-61.2 -50.5,-83.8 -37.5,-36.5 -85.4,-56 -133.9,-58.3 h -0.3 c -57.1,-2.8 -115,18 -158,62.1 -79.7,81.8 -94.8,229.8 -13.1,309.5 81.7,79.6 222.6,100.9 302.2,19.2"
         style="fill:#ffa412;fill-opacity:1;fill-rule:nonzero;stroke:none"
         id="path114" />
      <path
         d="m 24224.9,5144.7 h -0.3 v 0 c -42.9,2.6 -85,20.5 -117.3,53.7 -69,70.7 -82.1,199 -11.3,268 39.8,38.7 95.7,61.6 149.3,61.6 41.8,0 82.2,-13.9 112.4,-44.9 50.7,-52 66.5,-129.6 51.6,-196.3 v 0 c -10.4,-32.2 -27.4,-61.2 -50.5,-83.8 -37.5,-36.5 -85.4,-56 -133.9,-58.3"
         style="fill:#ffaf28;fill-opacity:1;fill-rule:nonzero;stroke:none"
         id="path116" />
      <path
         d="m 21718.8,2792 c -172.8,-14.8 -339.4,83.5 -426.7,219.3 -34.4,53.7 -56.5,113.1 -61.7,173.8 -8.4,98.5 20.4,191.5 75,265 l 0.4,0.5 c 64.2,86.5 163.8,146.1 279.5,156.1 214.5,18.3 448.5,-136.6 466.8,-351.1 18.4,-214.4 -119,-445.2 -333.3,-463.6"
         style="fill:#ffa412;fill-opacity:1;fill-rule:nonzero;stroke:none"
         id="path118" />
      <path
         d="m 21610,2850.5 c -125.6,0 -244.2,66.7 -317.9,160.8 v 0 c -34.4,53.7 -56.5,113.1 -61.7,173.8 -1,11.2 -1.4,22.3 -1.5,33.2 -0.1,86.1 28.1,166.6 76.5,231.8 l 0.4,0.5 c 55.1,59.4 131.6,99.3 218.6,106.8 10,0.8 20.1,1.3 30.2,1.3 176.8,0 358.9,-129.7 374,-305.4 15.9,-185.7 -103,-385.6 -288.7,-401.5 -10,-0.9 -20,-1.3 -29.9,-1.3"
         style="fill:#ffaf28;fill-opacity:1;fill-rule:nonzero;stroke:none"
         id="path120" />
      <path
         d="m 17903.3,7505.9 c -551,832.4 -771.2,2631.4 61.2,3182.4 832.4,550.9 2402.3,-354.7 2953.3,-1187.2 551,-832.4 322.8,-1953.9 -509.6,-2504.8 -832.5,-551 -1953.9,-322.8 -2504.9,509.6"
         style="fill:#ffffff;fill-opacity:1;fill-rule:nonzero;stroke:none"
         id="path122" />
      <path
         d="m 18538.3,7992.3 c -307.8,464.9 -180.3,1091.3 284.6,1399 465,307.8 1091.3,180.3 1399.1,-284.6 307.7,-465 180.3,-1091.3 -284.7,-1399.1 -464.9,-307.7 -1091.3,-180.3 -1399,284.7"
         style="fill:#f99746;fill-opacity:1;fill-rule:nonzero;stroke:none"
         id="path124" />
      <path
         d="m 16979.1,16307.4 h -207.7 v -208 h -37.6 v 445.4 h 275.9 v -32.2 h -238.3 v -173.1 h 207.7 v -32.1"
         style="fill:#99c3ff;fill-opacity:1;fill-rule:nonzero;stroke:none"
         id="path126" />
      <path
         d="m 17161.1,16125.7 c 13.2,0 25.5,1.7 36.8,5.1 11.4,3.3 21.6,8 30.8,13.9 9.2,5.9 17.1,12.8 23.8,20.6 6.8,7.9 12.2,16.4 16.3,25.6 v 72.8 h -62.8 c -18.7,0 -35.5,-1.7 -50.3,-5.1 -14.8,-3.4 -27.2,-8.2 -37.4,-14.5 -10.2,-6.3 -18,-14 -23.4,-23.1 -5.4,-9.1 -8.1,-19.3 -8.1,-30.7 0,-9 1.7,-17.4 5.2,-25.3 3.4,-7.8 8.4,-14.7 14.8,-20.5 6.4,-5.8 14.2,-10.4 23.4,-13.7 9.2,-3.4 19.5,-5.1 30.9,-5.1 z m 115,-26.3 c -2,5.7 -3.6,12.7 -4.8,21 -1.1,8.2 -1.8,16.6 -2.2,25.2 -5.5,-7.1 -12.1,-13.9 -19.6,-20.2 -7.6,-6.3 -16,-11.8 -25.4,-16.5 -9.4,-4.7 -19.7,-8.5 -30.9,-11.3 -11.2,-2.9 -23.4,-4.3 -36.4,-4.3 -16.1,0 -30.7,2.3 -43.9,7 -13.1,4.7 -24.4,11.3 -33.6,19.8 -9.3,8.4 -16.5,18.4 -21.6,29.8 -5.1,11.4 -7.6,23.8 -7.6,37.3 0,16.1 3.4,30.6 10.4,43.6 6.9,12.9 16.9,23.9 29.9,33 13.1,9.1 28.9,16 47.6,20.8 18.7,4.8 39.6,7.2 62.8,7.2 h 68 v 37.6 c 0,23.7 -7.3,42.3 -21.9,55.8 -14.6,13.6 -35.9,20.4 -63.8,20.4 -12.8,0 -24.7,-1.8 -35.5,-5.2 -10.8,-3.5 -20.1,-8.3 -28,-14.4 -7.8,-6.1 -13.9,-13.2 -18.3,-21.3 -4.4,-8 -6.6,-16.6 -6.6,-25.8 l -36.7,0.3 c 0,12.4 3.1,24.5 9.2,36.1 6.1,11.6 14.7,22 25.8,31 11.1,9.1 24.5,16.4 40.1,21.9 15.6,5.5 32.9,8.3 51.9,8.3 17.5,0 33.6,-2.3 48.4,-6.8 14.8,-4.4 27.5,-11.2 38.1,-20.1 10.6,-9 18.9,-20.2 24.8,-33.7 5.9,-13.5 8.8,-29.1 8.8,-47.1 v -160.3 c 0,-5.7 0.2,-11.6 0.7,-17.7 0.4,-6.1 1,-12 2,-17.7 0.9,-5.8 1.9,-11.2 3.2,-16.4 1.2,-5.2 2.6,-9.8 4.2,-13.6 v -3.7 h -39.1"
         style="fill:#99c3ff;fill-opacity:1;fill-rule:nonzero;stroke:none"
         id="path128" />
      <path
         d="m 17459.6,16515.1 v -84.7 h 68.5 v -30 h -68.5 v -220.5 c 0,-11.7 1.2,-21 3.5,-28 2.4,-7.1 5.5,-12.6 9.5,-16.5 4,-4 8.6,-6.7 13.8,-8 5.2,-1.3 10.6,-2 16.3,-2 5.5,0 10.8,0.4 15.9,1.1 5.1,0.7 9.7,1.4 13.8,2 l 1.5,-30 c -4.5,-1.6 -10.3,-2.9 -17.6,-3.8 -7.2,-0.9 -14.4,-1.4 -21.5,-1.4 -10.4,0 -20.1,1.4 -28.9,4.1 -8.9,2.8 -16.5,7.5 -22.8,14.2 -6.3,6.8 -11.3,15.7 -14.8,26.8 -3.6,11.1 -5.4,24.9 -5.4,41.5 v 220.5 h -60.9 v 30 h 60.9 v 84.7 h 36.7"
         style="fill:#99c3ff;fill-opacity:1;fill-rule:nonzero;stroke:none"
         id="path130" />
      <path
         d="m 17802.2,16183.5 c 0,6.8 -1.2,13.5 -3.5,20.2 -2.4,6.7 -6.8,13.1 -13.2,19.1 -6.4,6 -15.4,11.6 -26.9,16.9 -11.5,5.2 -26.5,9.7 -44.8,13.6 -18.4,3.8 -34.7,8.3 -49.1,13.4 -14.4,5.1 -26.5,11.3 -36.4,18.5 -9.9,7.3 -17.4,15.9 -22.5,25.9 -5.1,10 -7.6,21.7 -7.6,35.1 0,12.3 2.7,23.9 8.1,34.9 5.4,11 13.1,20.6 23.2,28.8 10.1,8.1 22.3,14.6 36.7,19.4 14.4,4.8 30.6,7.2 48.5,7.2 19.2,0 36.3,-2.5 51.5,-7.5 15.2,-5 28.1,-11.9 38.6,-20.8 10.5,-8.9 18.5,-19.3 24,-31.4 5.5,-12 8.2,-25.1 8.2,-39.1 h -36.7 c 0,8.5 -1.8,16.9 -5.6,25.1 -3.8,8.1 -9.3,15.3 -16.5,21.5 -7.3,6.2 -16.2,11.3 -26.9,15.2 -10.8,3.8 -22.9,5.8 -36.6,5.8 -14.3,0 -26.5,-1.8 -36.6,-5.2 -10,-3.5 -18.3,-8 -24.7,-13.5 -6.4,-5.5 -11.1,-11.7 -14.1,-18.5 -3,-6.8 -4.4,-13.7 -4.4,-20.6 0,-7.4 1.1,-14.1 3.3,-20.1 2.3,-6 6.6,-11.6 13,-16.8 6.5,-5.2 15.4,-10 26.9,-14.4 11.6,-4.4 26.6,-8.7 45.2,-13 20,-4.7 37.2,-9.9 51.7,-15.6 14.4,-5.7 26.4,-12.5 35.9,-20.3 9.5,-7.9 16.5,-16.8 21.1,-26.9 4.6,-10.1 6.9,-21.8 6.9,-35 0,-13.7 -2.9,-26.2 -8.6,-37.5 -5.7,-11.3 -13.9,-21 -24.5,-29.1 -10.6,-8 -23.4,-14.3 -38.5,-18.8 -15.1,-4.5 -31.9,-6.7 -50.5,-6.7 -21,0 -39.5,2.7 -55.6,8.1 -16.1,5.4 -29.7,12.7 -40.7,21.9 -11,9.1 -19.3,19.7 -24.9,31.6 -5.6,12 -8.4,24.3 -8.4,37.2 h 36.7 c 0.8,-13.1 4.1,-23.9 10,-32.6 6,-8.7 13.3,-15.6 22.1,-20.8 8.7,-5.2 18.5,-8.9 29.2,-11.2 10.7,-2.2 21.2,-3.3 31.6,-3.3 13.9,0 26.1,1.6 36.7,4.9 10.6,3.2 19.6,7.6 26.8,13.1 7.2,5.5 12.7,11.9 16.4,19 3.6,7.1 5.5,14.6 5.5,22.3"
         style="fill:#99c3ff;fill-opacity:1;fill-rule:nonzero;stroke:none"
         id="path132" />
      <path
         d="m 16593.4,15531.6 h -377.6 v 152.6 h 578.4 v -133.1 l -360.3,-670.2 h -199.7 l 359.2,650.7"
         style="fill:#99c3ff;fill-opacity:1;fill-rule:nonzero;stroke:none"
         id="path134" />
      <path
         d="m 16868.8,14987.6 106.7,127.4 c 60.9,-55.1 120.5,-87.2 191.7,-87.2 82.6,0 134.2,40.1 134.2,113.6 0,68.9 -58.5,109 -142.2,109 -50.5,0 -96.4,-13.7 -134.3,-29.8 l -102.1,67.7 22.9,395.9 h 493.5 v -154.9 h -342 l -9.2,-138.9 c 32.1,8 60.8,13.8 105.6,13.8 156,0 281.1,-75.8 281.1,-259.4 0,-169.8 -120.5,-277.7 -305.2,-277.7 -128.6,0 -222.6,45.9 -300.7,120.5"
         style="fill:#99c3ff;fill-opacity:1;fill-rule:nonzero;stroke:none"
         id="path136" />
      <path
         d="m 18250.9,15051.8 c 0,47.5 -26.3,88.8 -66.6,88.8 -42.4,0 -64.6,-40.3 -64.6,-88.8 0,-47.4 26.2,-88.8 66.6,-88.8 42.4,0 64.6,41.4 64.6,88.8 z m -237.2,0 c 0,100 69.6,180.7 172.6,180.7 101.9,0 170.5,-79.7 170.5,-180.7 0,-98.9 -69.6,-180.6 -172.5,-180.6 -102,0 -170.6,79.7 -170.6,180.6 z m -196.8,361.4 c 0,47.4 -26.3,88.8 -66.6,88.8 -42.4,0 -64.6,-40.4 -64.6,-88.8 0,-47.5 26.2,-88.9 66.6,-88.9 42.4,0 64.6,41.4 64.6,88.9 z m 349.2,172.5 h 120.1 l -515.8,-706.5 h -120.1 z m -586.4,-172.5 c 0,99.9 69.6,180.6 172.6,180.6 101.9,0 170.6,-79.7 170.6,-180.6 0,-99 -69.7,-180.7 -172.6,-180.7 -102,0 -170.6,79.7 -170.6,180.7"
         style="fill:#99c3ff;fill-opacity:1;fill-rule:nonzero;stroke:none"
         id="path138" />
      <path
         d="m 11918.8,14569.8 h 114.1 c 19.7,0 36.8,2.5 51.1,7.5 14.2,5 25.8,11.9 34.8,20.8 9,8.9 15.6,19.3 19.9,31.3 4.3,12.1 6.4,25 6.4,38.9 0,13.6 -2.1,26.6 -6.4,39 -4.3,12.3 -10.9,23.1 -19.9,32.4 -9,9.3 -20.6,16.6 -34.8,22 -14.3,5.4 -31.4,8.1 -51.1,8.1 h -114.1 z m 0,-31.8 v -181.4 h -37.6 v 445.3 h 151.7 c 24.4,0 46,-3.2 64.7,-9.7 18.6,-6.6 34.3,-15.7 46.9,-27.4 12.6,-11.7 22.2,-25.8 28.6,-42.1 6.4,-16.3 9.6,-34.2 9.6,-53.8 0,-20.6 -3.2,-39 -9.6,-55.2 -6.4,-16.2 -15.9,-29.9 -28.4,-41.1 -12.6,-11.3 -28.2,-19.8 -47,-25.7 -18.8,-6 -40.4,-8.9 -64.8,-8.9 h -114.1"
         style="fill:#99c3ff;fill-opacity:1;fill-rule:nonzero;stroke:none"
         id="path140" />
      <path
         d="m 12411.2,14656.4 c -7.7,1.4 -16,2.1 -24.7,2.1 -12.5,0 -23.7,-1.8 -33.7,-5.5 -10,-3.7 -18.8,-8.8 -26.4,-15.4 -7.7,-6.7 -14.1,-14.5 -19.3,-23.6 -5.2,-9.1 -9.3,-19.1 -12.4,-30.1 v -227.3 h -36.4 v 331 h 35.8 l 0.6,-52.7 c 9,18.2 21.1,32.5 36.5,43 15.4,10.5 34.3,15.8 56.8,15.8 4.5,0 9.1,-0.4 13.7,-1.3 4.7,-0.8 8.2,-1.7 10.4,-2.7 l -0.9,-33.3"
         style="fill:#99c3ff;fill-opacity:1;fill-rule:nonzero;stroke:none"
         id="path142" />
      <path
         d="m 12479.4,14516.9 c 0,-18.2 2.5,-35.5 7.4,-51.9 4.9,-16.4 12,-30.8 21.4,-43.1 9.4,-12.3 21,-22.2 34.8,-29.5 13.9,-7.3 29.8,-11 47.8,-11 17.9,0 33.8,3.7 47.5,11 13.8,7.3 25.4,17.2 34.7,29.5 9.4,12.3 16.6,26.7 21.5,43.1 4.8,16.4 7.3,33.7 7.3,51.9 v 10.1 c 0,17.7 -2.5,34.8 -7.3,51.2 -4.9,16.4 -12.1,30.9 -21.5,43.3 -9.3,12.4 -21,22.4 -35,29.8 -14,7.5 -29.9,11.2 -47.9,11.2 -17.7,0 -33.4,-3.7 -47.2,-11.2 -13.8,-7.4 -25.3,-17.4 -34.7,-29.8 -9.4,-12.4 -16.5,-26.9 -21.4,-43.3 -4.9,-16.4 -7.4,-33.5 -7.4,-51.2 z m -36.7,10.1 c 0,24 3.5,46.3 10.6,66.7 7,20.3 16.9,37.9 29.8,52.7 12.8,14.8 28.3,26.4 46.5,34.7 18.1,8.4 38.3,12.6 60.5,12.6 22.7,0 43.1,-4.2 61.4,-12.6 18.2,-8.3 33.8,-19.9 46.6,-34.7 12.9,-14.8 22.8,-32.4 29.7,-52.7 6.9,-20.4 10.4,-42.7 10.4,-66.7 v -10.1 c 0,-24.1 -3.5,-46.3 -10.4,-66.7 -6.9,-20.4 -16.8,-38 -29.7,-52.8 -12.8,-14.7 -28.3,-26.3 -46.5,-34.5 -18.1,-8.3 -38.4,-12.4 -60.8,-12.4 -22.5,0 -42.8,4.1 -60.9,12.4 -18.2,8.2 -33.7,19.8 -46.6,34.5 -13,14.8 -23,32.4 -30,52.8 -7.1,20.4 -10.6,42.6 -10.6,66.7 v 10.1"
         style="fill:#99c3ff;fill-opacity:1;fill-rule:nonzero;stroke:none"
         id="path144" />
      <path
         d="m 12870.6,14772.3 v -84.7 h 68.5 v -30 h -68.5 v -220.5 c 0,-11.7 1.2,-21 3.5,-28 2.4,-7.1 5.5,-12.6 9.5,-16.6 4,-3.9 8.6,-6.6 13.8,-7.9 5.2,-1.3 10.6,-2 16.4,-2 5.5,0 10.8,0.4 15.9,1.1 5.1,0.7 9.6,1.4 13.7,2 l 1.6,-30 c -4.5,-1.6 -10.4,-2.9 -17.6,-3.8 -7.3,-1 -14.5,-1.4 -21.6,-1.4 -10.4,0 -20,1.4 -28.9,4.1 -8.9,2.8 -16.5,7.5 -22.8,14.2 -6.3,6.8 -11.3,15.7 -14.8,26.8 -3.6,11.1 -5.4,24.9 -5.4,41.5 v 220.5 h -60.8 v 30 h 60.8 v 84.7 h 36.7"
         style="fill:#99c3ff;fill-opacity:1;fill-rule:nonzero;stroke:none"
         id="path146" />
      <path
         d="m 13136.4,14662.5 c -13.8,0 -26.7,-2.7 -38.5,-8 -11.8,-5.3 -22.3,-12.8 -31.4,-22.6 -9,-9.8 -16.5,-21.6 -22.3,-35.3 -5.8,-13.8 -9.7,-29 -11.8,-45.8 h 198.5 v 4 c -0.4,13.9 -2.6,27.3 -6.7,40.2 -4.1,13 -10,24.4 -17.9,34.4 -7.8,10 -17.6,18 -29.2,24 -11.6,6.1 -25.2,9.1 -40.7,9.1 z m 6.8,-312 c -21.7,0 -41.5,4 -59.7,12.1 -18.1,8 -33.8,19.2 -46.9,33.6 -13.2,14.4 -23.4,31.5 -30.8,51.2 -7.3,19.8 -11,41.5 -11,65.2 v 13.2 c 0,25.4 3.8,48.5 11.5,69.2 7.6,20.7 18,38.4 31,52.9 13.1,14.6 28.1,25.9 45.1,33.8 17.1,8 35.1,12 54,12 21,0 39.7,-3.8 56,-11.3 16.3,-7.6 30,-18.1 41.1,-31.5 11.2,-13.5 19.6,-29.5 25.3,-48.1 5.7,-18.5 8.5,-38.8 8.5,-60.8 v -22.4 h -236.1 v -7 c 0,-18.2 2.8,-35.2 8.3,-51.2 5.5,-16 13.2,-30 23.2,-41.8 10,-11.8 21.9,-21.1 35.8,-28 13.9,-6.8 29.3,-10.2 46.2,-10.2 19.6,0 36.8,3.5 51.8,10.7 15,7.1 28.6,18.5 40.9,34.3 l 22.9,-17.5 c -5.5,-7.9 -11.9,-15.5 -19.1,-22.6 -7.3,-7.2 -15.7,-13.4 -25.2,-18.7 -9.6,-5.3 -20.4,-9.5 -32.5,-12.5 -12,-3.1 -25.5,-4.6 -40.3,-4.6"
         style="fill:#99c3ff;fill-opacity:1;fill-rule:nonzero;stroke:none"
         id="path148" />
      <path
         d="m 13379.6,14356.6 h -36.7 v 331 h 36.7 z m -43.1,426.7 c 0,6.9 2.2,12.8 6.7,17.6 4.5,4.8 10.6,7.2 18.3,7.2 7.8,0 14,-2.4 18.5,-7.2 4.6,-4.8 6.9,-10.7 6.9,-17.6 0,-6.9 -2.3,-12.7 -6.9,-17.4 -4.5,-4.7 -10.7,-7.1 -18.5,-7.1 -7.7,0 -13.8,2.4 -18.3,7.1 -4.5,4.7 -6.7,10.5 -6.7,17.4"
         style="fill:#99c3ff;fill-opacity:1;fill-rule:nonzero;stroke:none"
         id="path150" />
      <path
         d="m 13513.9,14687.6 1.2,-56.6 c 5.7,9.3 12.3,17.9 19.7,25.7 7.5,7.7 15.8,14.3 24.9,19.8 9.2,5.6 19.1,9.8 29.7,12.7 10.6,3 21.8,4.5 33.7,4.5 16.5,0 31.3,-2.3 44.3,-6.8 13.1,-4.4 24.1,-11.6 33.2,-21.4 9.1,-9.8 16,-22.3 20.8,-37.7 4.8,-15.4 7.2,-34 7.2,-55.9 v -215.3 h -36.4 v 215.6 c 0,17.2 -1.9,31.4 -5.5,42.9 -3.7,11.4 -8.9,20.6 -15.6,27.5 -6.8,6.9 -15,11.9 -24.6,14.8 -9.7,3 -20.5,4.5 -32.3,4.5 -13.1,0 -24.9,-2.2 -35.5,-6.6 -10.6,-4.4 -20,-10.3 -28.1,-17.6 -8.2,-7.3 -15.2,-15.8 -21.1,-25.2 -6,-9.5 -10.6,-19.3 -14.1,-29.2 v -226.7 h -36.4 v 331 h 34.9"
         style="fill:#99c3ff;fill-opacity:1;fill-rule:nonzero;stroke:none"
         id="path152" />
      <path
         d="m 11638.2,13212.2 271.5,222.6 c 101.3,83.8 140.9,128.1 140.9,195.7 0,68.7 -45.4,106 -109.5,106 -62.9,0 -106,-35 -166.6,-109.5 l -125.8,101.3 c 80.4,109.5 158.4,169 304.1,169 168.9,0 280.7,-99.1 280.7,-254 0,-136.3 -69.9,-203.9 -214.3,-315.7 l -132.8,-102.5 h 355.3 v -155 h -603.5 v 142.1"
         style="fill:#99c3ff;fill-opacity:1;fill-rule:nonzero;stroke:none"
         id="path154" />
      <path
         d="m 12910.4,13477.9 c 0,147.9 -72.3,259.8 -179.4,259.8 -107.2,0 -177.1,-108.4 -177.1,-259.8 0,-149.2 71.1,-259.8 179.4,-259.8 108.4,0 177.1,109.5 177.1,259.8 z m -540.6,0 c 0,236.5 146.8,421.7 363.5,421.7 215.5,0 361.1,-182.9 361.1,-421.7 0,-236.5 -145.6,-421.8 -363.4,-421.8 -217.9,0 -361.2,182.9 -361.2,421.8"
         style="fill:#99c3ff;fill-opacity:1;fill-rule:nonzero;stroke:none"
         id="path156" />
      <path
         d="m 13865.5,13240.8 c 0,47.5 -26.2,88.8 -66.6,88.8 -42.4,0 -64.6,-40.3 -64.6,-88.8 0,-47.4 26.3,-88.8 66.7,-88.8 42.3,0 64.5,41.4 64.5,88.8 z m -237.1,0 c 0,99.9 69.6,180.7 172.6,180.7 101.9,0 170.5,-79.7 170.5,-180.7 0,-98.9 -69.6,-180.6 -172.6,-180.6 -101.9,0 -170.5,79.7 -170.5,180.6 z m -196.8,361.4 c 0,47.4 -26.3,88.8 -66.7,88.8 -42.3,0 -64.5,-40.4 -64.5,-88.8 0,-47.5 26.2,-88.9 66.6,-88.9 42.4,0 64.6,41.4 64.6,88.9 z m 349.2,172.5 h 120.1 l -515.8,-706.5 H 13265 Z m -586.4,-172.5 c 0,99.9 69.6,180.6 172.6,180.6 101.9,0 170.5,-79.7 170.5,-180.6 0,-99 -69.6,-180.7 -172.6,-180.7 -101.9,0 -170.5,79.7 -170.5,180.7"
         style="fill:#99c3ff;fill-opacity:1;fill-rule:nonzero;stroke:none"
         id="path158" />
      <path
         d="m 21010.9,11447.6 c -2.4,-22.6 -7.7,-42.9 -15.9,-60.8 -8.1,-18 -19.1,-33.2 -32.9,-45.6 -13.7,-12.4 -30.2,-22 -49.5,-28.6 -19.3,-6.6 -41.2,-9.9 -65.6,-9.9 -25.3,0 -48.2,4.7 -68.8,14.3 -20.6,9.6 -38.3,23.2 -53,40.9 -14.6,17.6 -26,38.7 -33.9,63.4 -8,24.7 -11.9,52 -11.9,82 v 56 c 0,29.9 3.9,57.3 11.9,82.1 7.9,24.8 19.3,45.9 34.1,63.5 14.8,17.5 32.7,31.1 53.7,40.8 21,9.7 44.5,14.5 70.6,14.5 23.7,0 45,-3.2 64,-9.8 18.9,-6.5 35.2,-16 48.7,-28.6 13.6,-12.5 24.5,-27.8 32.8,-45.8 8.2,-18.1 13.5,-38.5 15.7,-61.4 h -37.9 c -2.3,18 -6.3,34 -12.2,48.2 -6,14.2 -14,26.1 -24.1,35.6 -10,9.6 -22.3,17 -36.7,22.1 -14.3,5.1 -31.1,7.6 -50.3,7.6 -20.8,0 -39.3,-4 -55.6,-12.1 -16.4,-8 -30.2,-19.4 -41.6,-34.1 -11.5,-14.7 -20.2,-32.4 -26.2,-53 -6,-20.7 -9,-43.7 -9,-69 v -56.6 c 0,-24.5 2.8,-47 8.5,-67.7 5.8,-20.7 14.1,-38.6 25.1,-53.6 11,-15 24.6,-26.6 40.7,-35 16.1,-8.4 34.6,-12.5 55.4,-12.5 39.3,0 69,9.4 89,28.3 20,18.8 32.3,47.1 37,84.8 h 37.9"
         style="fill:#99c3ff;fill-opacity:1;fill-rule:nonzero;stroke:none"
         id="path160" />
      <path
         d="m 21187.7,11335.1 c 13.3,0 25.5,1.7 36.9,5 11.3,3.4 21.5,8 30.7,13.9 9.2,5.9 17.1,12.8 23.9,20.7 6.7,7.8 12.1,16.3 16.2,25.5 v 72.8 h -62.7 c -18.8,0 -35.6,-1.7 -50.3,-5 -14.8,-3.4 -27.3,-8.2 -37.5,-14.6 -10.2,-6.3 -18,-14 -23.4,-23 -5.4,-9.1 -8.1,-19.4 -8.1,-30.8 0,-9 1.7,-17.4 5.2,-25.2 3.5,-7.9 8.4,-14.7 14.8,-20.5 6.4,-5.8 14.2,-10.4 23.4,-13.8 9.2,-3.3 19.5,-5 30.9,-5 z m 115,-26.3 c -2,5.7 -3.6,12.7 -4.7,20.9 -1.2,8.3 -1.9,16.7 -2.3,25.3 -5.5,-7.2 -12.1,-13.9 -19.6,-20.2 -7.5,-6.4 -16,-11.9 -25.4,-16.5 -9.4,-4.7 -19.7,-8.5 -30.9,-11.4 -11.2,-2.8 -23.3,-4.2 -36.4,-4.2 -16.1,0 -30.7,2.3 -43.9,7 -13.1,4.7 -24.3,11.2 -33.6,19.7 -9.3,8.5 -16.5,18.4 -21.6,29.8 -5.1,11.5 -7.6,23.9 -7.6,37.4 0,16.1 3.4,30.6 10.4,43.5 6.9,13 16.9,24 30,33.1 13,9.1 28.9,16 47.5,20.8 18.7,4.8 39.6,7.2 62.9,7.2 h 67.9 v 37.6 c 0,23.6 -7.3,42.2 -21.9,55.8 -14.6,13.6 -35.8,20.3 -63.8,20.3 -12.8,0 -24.7,-1.7 -35.4,-5.2 -10.9,-3.4 -20.2,-8.2 -28,-14.3 -7.9,-6.2 -14,-13.2 -18.4,-21.3 -4.4,-8.1 -6.6,-16.7 -6.6,-25.8 l -36.7,0.3 c 0,12.4 3.1,24.4 9.2,36.1 6.1,11.6 14.7,21.9 25.8,31 11.2,9.1 24.5,16.4 40.1,21.9 15.6,5.5 32.9,8.2 51.9,8.2 17.5,0 33.7,-2.2 48.4,-6.7 14.8,-4.5 27.5,-11.2 38.1,-20.2 10.6,-9 18.9,-20.2 24.8,-33.6 5.9,-13.5 8.9,-29.2 8.9,-47.1 v -160.3 c 0,-5.7 0.2,-11.6 0.6,-17.7 0.4,-6.2 1.1,-12.1 2,-17.8 0.9,-5.7 2,-11.1 3.2,-16.4 1.2,-5.1 2.6,-9.7 4.3,-13.6 v -3.6 h -39.2"
         style="fill:#99c3ff;fill-opacity:1;fill-rule:nonzero;stroke:none"
         id="path162" />
      <path
         d="m 21582.3,11608.5 c -7.8,1.4 -16,2.2 -24.8,2.2 -12.4,0 -23.7,-1.9 -33.7,-5.5 -9.9,-3.7 -18.8,-8.9 -26.4,-15.5 -7.7,-6.6 -14.1,-14.5 -19.3,-23.5 -5.2,-9.1 -9.3,-19.2 -12.4,-30.2 v -227.2 h -36.4 v 330.9 h 35.8 l 0.6,-52.6 c 9,18.2 21.2,32.5 36.6,43 15.4,10.5 34.3,15.7 56.7,15.7 4.5,0 9.1,-0.4 13.8,-1.2 4.7,-0.8 8.1,-1.7 10.4,-2.7 l -0.9,-33.4"
         style="fill:#99c3ff;fill-opacity:1;fill-rule:nonzero;stroke:none"
         id="path164" />
      <path
         d="m 21869.8,11477.3 c 0,19.2 -1.9,37.1 -5.5,53.8 -3.7,16.8 -9.5,31.2 -17.3,43.5 -7.9,12.2 -17.9,21.8 -30.1,28.9 -12.3,7 -27,10.5 -44.1,10.5 -13.8,0 -26.1,-1.9 -36.7,-5.6 -10.6,-3.8 -19.8,-8.9 -27.5,-15.2 -7.8,-6.3 -14.3,-13.5 -19.6,-21.7 -5.3,-8.1 -9.6,-16.6 -12.8,-25.4 v -149.2 c 3.8,-8.8 8.7,-17 14.5,-24.7 5.8,-7.6 12.7,-14.3 20.6,-19.8 8,-5.6 17.1,-10 27.4,-13.2 10.3,-3.2 21.9,-4.7 34.7,-4.7 16.5,0 30.9,3.4 43,10.4 12.1,6.9 22.2,16.5 30.1,28.7 8,12.3 13.8,26.7 17.6,43.3 3.8,16.6 5.7,34.6 5.7,54 z m 36.7,-6.4 c 0,-24.9 -2.8,-47.6 -8.4,-68.2 -5.6,-20.6 -13.8,-38.3 -24.7,-53.1 -10.8,-14.8 -24,-26.3 -39.7,-34.6 -15.7,-8.2 -33.6,-12.3 -53.5,-12.3 -24.3,0 -45.1,4.5 -62.3,13.7 -17.2,9.2 -31.3,21.7 -42.4,37.6 l -1.5,-45.2 h -34.2 v 469.8 h 36.4 v -186.9 c 11,17.1 24.9,30.4 41.9,39.9 16.9,9.5 37.4,14.2 61.4,14.2 20.2,0 38.2,-3.9 53.9,-11.9 15.7,-8 29,-19.3 39.9,-34 10.9,-14.6 19.2,-32.3 24.8,-53 5.6,-20.7 8.4,-43.9 8.4,-69.6 v -6.4"
         style="fill:#99c3ff;fill-opacity:1;fill-rule:nonzero;stroke:none"
         id="path166" />
      <path
         d="m 22185.4,11392.9 c 0,6.7 -1.1,13.4 -3.5,20.2 -2.3,6.7 -6.7,13.1 -13.1,19.1 -6.5,6 -15.4,11.6 -27,16.8 -11.5,5.2 -26.4,9.7 -44.8,13.6 -18.3,3.9 -34.7,8.4 -49.1,13.5 -14.3,5.1 -26.5,11.2 -36.4,18.5 -9.8,7.2 -17.3,15.8 -22.4,25.8 -5.1,10 -7.7,21.7 -7.7,35.2 0,12.2 2.7,23.9 8.1,34.9 5.4,11 13.2,20.6 23.3,28.7 10.1,8.2 22.3,14.7 36.7,19.4 14.3,4.8 30.5,7.2 48.5,7.2 19.1,0 36.3,-2.5 51.5,-7.5 15.2,-5 28,-11.9 38.5,-20.8 10.5,-8.8 18.5,-19.3 24,-31.3 5.5,-12.1 8.3,-25.1 8.3,-39.2 h -36.7 c 0,8.6 -1.9,17 -5.7,25.1 -3.7,8.2 -9.2,15.3 -16.5,21.6 -7.2,6.2 -16.2,11.2 -26.9,15.1 -10.7,3.9 -22.9,5.8 -36.5,5.8 -14.3,0 -26.5,-1.7 -36.6,-5.2 -10.1,-3.4 -18.4,-7.9 -24.8,-13.4 -6.4,-5.5 -11.1,-11.7 -14,-18.5 -3,-6.9 -4.5,-13.7 -4.5,-20.7 0,-7.3 1.1,-14 3.4,-20 2.2,-6 6.6,-11.6 13,-16.8 6.4,-5.2 15.4,-10 26.9,-14.4 11.5,-4.4 26.6,-8.7 45.1,-13 20,-4.7 37.2,-9.9 51.7,-15.6 14.5,-5.7 26.5,-12.5 36,-20.3 9.4,-7.9 16.5,-16.9 21.1,-27 4.5,-10 6.8,-21.7 6.8,-35 0,-13.6 -2.8,-26.1 -8.5,-37.4 -5.7,-11.4 -13.9,-21 -24.5,-29.1 -10.6,-8.1 -23.4,-14.3 -38.5,-18.8 -15.1,-4.5 -31.9,-6.7 -50.5,-6.7 -21,0 -39.6,2.7 -55.7,8.1 -16.1,5.4 -29.6,12.6 -40.6,21.8 -11.1,9.2 -19.4,19.8 -25,31.7 -5.6,11.9 -8.4,24.3 -8.4,37.1 h 36.7 c 0.8,-13 4.2,-23.9 10.1,-32.5 5.9,-8.7 13.3,-15.6 22,-20.8 8.8,-5.2 18.5,-9 29.2,-11.2 10.7,-2.2 21.3,-3.4 31.7,-3.4 13.9,0 26.1,1.7 36.7,4.9 10.6,3.3 19.5,7.7 26.8,13.2 7.2,5.5 12.7,11.8 16.3,19 3.7,7.1 5.5,14.5 5.5,22.3"
         style="fill:#99c3ff;fill-opacity:1;fill-rule:nonzero;stroke:none"
         id="path168" />
      <path
         d="m 20688,10259.8 113.3,135.2 c 64.6,-58.4 128,-92.6 203.5,-92.6 87.8,0 142.6,42.7 142.6,120.7 0,73.1 -62.2,115.7 -151.1,115.7 -53.6,0 -102.4,-14.6 -142.5,-31.7 l -108.5,71.9 24.4,420.4 h 523.9 v -164.5 h -363.1 l -9.7,-147.5 c 34.1,8.6 64.5,14.7 112,14.7 165.7,0 298.6,-80.4 298.6,-275.4 0,-180.3 -128,-294.8 -324.2,-294.8 -136.4,0 -236.3,48.7 -319.2,127.9"
         style="fill:#99c3ff;fill-opacity:1;fill-rule:nonzero;stroke:none"
         id="path170" />
      <path
         d="m 22107.5,10316.6 c 0,47.4 -26.2,88.8 -66.6,88.8 -42.4,0 -64.6,-40.4 -64.6,-88.8 0,-47.5 26.2,-88.9 66.6,-88.9 42.4,0 64.6,41.4 64.6,88.9 z m -237.2,0 c 0,99.9 69.7,180.6 172.6,180.6 101.9,0 170.6,-79.7 170.6,-180.6 0,-98.9 -69.7,-180.7 -172.6,-180.7 -102,0 -170.6,79.7 -170.6,180.7 z m -196.8,361.3 c 0,47.4 -26.2,88.8 -66.6,88.8 -42.4,0 -64.6,-40.4 -64.6,-88.8 0,-47.5 26.2,-88.8 66.6,-88.8 42.4,0 64.6,41.3 64.6,88.8 z m 349.2,172.6 h 120.1 L 21627.1,10144 H 21507 Z m -586.4,-172.6 c 0,99.9 69.7,180.6 172.6,180.6 101.9,0 170.6,-79.7 170.6,-180.6 0,-98.9 -69.7,-180.7 -172.6,-180.7 -101.9,0 -170.6,79.7 -170.6,180.7"
         style="fill:#99c3ff;fill-opacity:1;fill-rule:nonzero;stroke:none"
         id="path172" />
      <path
         d="m 27076.4,8680.9 c -261.5,-608.6 -708.9,-1310.8 -1321.4,-1526 -45.3,-15.9 -93.5,-22.6 -141.2,-17.7 -87.2,9 -169.8,36.3 -228,79.5 -79.9,59 -114,147.7 -52.1,259.2 327.4,589.8 290.4,1208.4 -60.2,1312.2 -252.9,75 -668.9,-413.1 -677.2,-1065.8 -1.9,-150.9 -112.3,-228 -254.8,-217.7 -87.8,6.6 -187.8,46.2 -281.9,122.5 -8.5,6.9 -15.9,15.2 -22,24.4 -337.4,511.5 -386.1,1328.2 -345.9,2006.2 51.2,861.5 754.1,1816.8 1799.2,1817.7 159.6,0.2 407.6,24.6 519.4,-6.2 99.1,-27.4 311.9,-175.5 447,-250.7 993.5,-553.3 953.3,-1760.2 619.1,-2537.6"
         style="fill:#2e3552;fill-opacity:1;fill-rule:nonzero;stroke:none"
         id="path174" />
      <path
         d="m 27203.7,9639.7 c 0,-4.6 0,-9.2 -0.1,-13.5 -0.7,-336.7 -80.4,-672.6 -201.7,-954.6 -28.4,-65.9 -59,-132.8 -92,-200.2 l -0.1,-0.2 c -3.6,-8 -7.7,-16.1 -11.6,-24.2 -99.3,-200.6 -218.2,-403.5 -356.3,-587.3 v -0.3 c -6,-8 -11.9,-15.8 -18,-23.7 -49.5,-64.7 -101.6,-126.9 -155.9,-185.6 -12.7,-13.7 -25.4,-27.2 -38.4,-40.5 l -0.1,-0.2 c -174.9,-180.2 -373.2,-324.4 -593.7,-402.7 -46.4,-16.5 -95.9,-23.1 -144.8,-17.6 -81.7,9.2 -158.8,35.2 -213.4,75.8 -76.8,56.7 -109.6,141.8 -50.1,249 314.6,566.6 279,1160.9 -57.9,1260.7 -242.9,72 -642.6,-396.9 -650.5,-1024.1 -1.9,-144.9 -107.9,-219 -244.9,-209 -64.3,4.8 -135.4,28 -205.7,71.3 -49.3,30.4 -89.9,73.2 -119.6,123 -98.2,164.7 -168.4,358.2 -216.7,566.4 23.4,-49.2 65.7,-131 123,-210.2 86.6,-119.2 179.4,-193.3 272.9,-219.1 36.9,-10.2 73.7,-12.9 110.4,-7.9 106.6,14.1 206.2,114.1 295.9,297.2 66.1,134.8 102,267.4 102.3,268.5 l -19,5.4 c -1.5,-5.2 -142.4,-519.5 -381.9,-551.5 -297.9,-39.5 -503.4,466 -505.5,471.1 l -9,-3.7 c -17.1,79 -31,159.6 -42.1,241.7 -1,6.5 -2,12.5 -2.8,19.1 l 0.2,0.4 c -29.6,222.5 -39.9,452.9 -37.9,676.6 l 0.1,0.3 c -0.1,4.3 0.1,8.8 0.1,13.1 1.2,104.3 5.2,207.1 11,306.9 19.7,329.7 137.3,668.2 335.2,955.4 l 0.1,0.2 c 2.6,3.8 5.1,7.3 7.8,11 155.3,222.1 358.8,412.7 602.2,544.1 6.5,3.7 13.5,7.2 20.3,10.8 69.1,36.1 141.5,67.5 216.9,93.6 9.2,3.1 18.8,6.3 28.4,9.2 28.3,9.4 57,17.5 85.9,25.2 h 0.2 c 269.5,70.6 573.4,73.1 903.3,-18 369.2,-101.8 642.3,-269 837.4,-475.6 l 0.3,-0.2 c 25.4,-26.9 49.6,-54.6 72.3,-82.7 5.3,-6.4 10.4,-12.8 15.4,-19.3 46.7,-59.5 87.7,-121.8 123.6,-186.2 2.3,-4.2 4.6,-8.1 6.7,-12.2 138.5,-254 196.8,-540.1 197.8,-825.7"
         style="fill:#f99746;fill-opacity:1;fill-rule:nonzero;stroke:none"
         id="path176" />
      <path
         d="m 25385.8,7216.7 c -89.7,52.5 -145.8,199.5 -75.6,320.7 324.9,560.8 294.5,1113.1 -42.4,1212.8 -242.9,72 -640.8,-372.5 -648.8,-999.6 -1.8,-145 -100.4,-277.2 -320.6,-240.2 l 75.3,31.4 c 0,0 127.6,18.7 165.5,153.5 33.3,118.4 66.7,1353.5 748.5,1181 658.4,-166.6 289.2,-972.2 207.2,-1119.8 -82,-147.6 -164.9,-371.6 -109.1,-539.8"
         style="fill:#efefef;fill-opacity:1;fill-rule:nonzero;stroke:none"
         id="path178" />
      <path
         d="m 24695.2,11120.8 v 0 c 0.1,0 0.2,0.1 0.3,0.1 -0.1,0 -0.2,-0.1 -0.3,-0.1 v 0 m 13.5,7.3 c 2.3,1.1 4.5,2.3 6.8,3.6 0,0 0,-0.1 0,-0.1 v 0 c -2.2,-1.2 -4.5,-2.4 -6.8,-3.5"
         style="fill:#979aa9;fill-opacity:1;fill-rule:nonzero;stroke:none"
         id="path180" />
      <path
         d="m 25372.4,9529.9 -19.6,2.7 c 0.8,6.8 92.3,690.5 -91.4,1005.9 -201.5,345.7 -477.6,529.6 -566.2,582.3 0,0 0,0 0,0 0.1,0 0.2,0.1 0.3,0.1 4.3,2.5 8.7,4.8 13.2,7.2 2.3,1.1 4.6,2.3 6.8,3.5 v 0 c 99.8,-60.9 366.8,-246.2 563.1,-583.2 78.7,-135 118.4,-347.7 118,-631.9 -0.3,-211 -23.9,-384.9 -24.2,-386.6"
         style="fill:#fccba3;fill-opacity:1;fill-rule:nonzero;stroke:none"
         id="path182" />
      <path
         d="m 27005.9,10465.4 v 0 c -2.1,4.1 -4.4,8 -6.7,12.2 v 0 c 2.3,-4.1 4.6,-8 6.7,-12.2 v 0"
         style="fill:#979aa9;fill-opacity:1;fill-rule:nonzero;stroke:none"
         id="path184" />
      <path
         d="m 25681.9,9500 -18.5,7.6 c 1.2,2.9 126.7,306.7 353.4,575.9 236.3,280.7 498,424.5 767.2,424.5 69.8,0 140.1,-9.6 210.6,-29.1 l 4.6,-1.3 c 2.3,-4.2 4.6,-8.1 6.7,-12.2 v 0 l -2.8,-9.5 -14,3.9 c -71,19.6 -139.5,28.5 -205.4,28.5 -689.5,0 -1097.5,-977.5 -1101.8,-988.3"
         style="fill:#fccba3;fill-opacity:1;fill-rule:nonzero;stroke:none"
         id="path186" />
      <path
         d="m 24085.2,10565.6 v 0.1 c 0.3,0.4 0.6,0.9 0.9,1.3 -0.3,-0.4 -0.6,-0.8 -0.9,-1.3 v -0.1 m 3.4,5 c 1.5,2 2.9,4 4.4,6.2 h 0.1 c 0,-0.1 0,-0.1 -0.1,-0.1 -1.5,-2.1 -2.9,-4.1 -4.4,-6.1"
         style="fill:#979aa9;fill-opacity:1;fill-rule:nonzero;stroke:none"
         id="path188" />
      <path
         d="m 25268.3,9554.1 c -0.3,7.2 -29.9,720.8 -356.8,901.4 -173.6,96 -392.5,118.7 -561.1,118.7 -150.7,0 -261.2,-18.1 -263.4,-18.5 l -1.9,9.8 0.1,0.1 v 0.1 c 0.3,0.5 0.6,0.9 0.9,1.3 0.9,1.2 1.7,2.4 2.5,3.6 1.5,2 2.9,4 4.4,6.1 0.1,0 0.1,0 0.1,0.1 30.3,4.4 129.5,17.3 257.2,17.3 171.3,0 393.9,-23.2 571,-121 141.8,-78.4 246.6,-257.1 311.5,-531.1 48.2,-202.7 55.2,-385.3 55.3,-387.2 l -19.8,-0.7"
         style="fill:#fccba3;fill-opacity:1;fill-rule:nonzero;stroke:none"
         id="path190" />
      <path
         d="m 27203.7,9634.2 c 0,1.8 0,3.7 0,5.4 v 0 c 0,-1.8 0,-3.6 0,-5.4"
         style="fill:#979aa9;fill-opacity:1;fill-rule:nonzero;stroke:none"
         id="path192" />
      <path
         d="m 25721.8,9428.3 -16.3,11.5 c 2.5,3.7 358,377.4 809.6,431.3 35.6,4.2 70.7,6.4 105.4,6.4 212.6,0 408.3,-79.8 583.2,-237.9 0,-1.7 0,-3.6 0,-5.4 0,-2.7 -0.1,-5.4 -0.2,-7.9 l -6.5,-7.3 c -172.8,158.6 -366.7,238.5 -577.2,238.5 -21,0 -42,-0.8 -63.3,-2.4 -458.2,-34.3 -831.6,-422.9 -834.7,-426.8"
         style="fill:#fccba3;fill-opacity:1;fill-rule:nonzero;stroke:none"
         id="path194" />
      <path
         d="m 25178.8,9404 c -200.8,188.5 -479.2,219.2 -702.9,244 -184.8,20.5 -330.8,36.6 -369.7,134.4 -44.4,111.5 -8.7,257.1 86.9,353.9 48.1,48.7 138.6,112.1 284.4,112.1 68.5,0 149.2,-14 243.4,-50 481.7,-184.6 505,-710.4 505.2,-715.7 l -19.9,-0.7 c -0.2,5.2 -23.3,518 -492.4,697.8 -91.6,35.1 -169.8,48.6 -235.9,48.6 -139.1,0 -225,-59.9 -270.7,-106.1 -88.7,-89.9 -123.5,-229.8 -82.5,-332.6 34.5,-86.7 175.2,-102.2 353.4,-121.9 226.7,-25.1 508.7,-56.3 714.3,-249.3 l -13.6,-14.5"
         style="fill:#fccba3;fill-opacity:1;fill-rule:nonzero;stroke:none"
         id="path196" />
      <path
         d="m 26696.2,8986.6 c -24.5,0 -50.8,4.4 -79,12.2 -63.4,17.5 -135.9,51.8 -217,90.1 -165.1,78.1 -364.9,172.6 -589,172.6 -36.8,0 -74.2,-2.5 -112.2,-8.1 l -2.9,19.7 c 39.1,5.7 77.6,8.4 115.3,8.4 228.2,0 430.3,-95.6 597.3,-174.6 115,-54.3 212.3,-100.4 287.3,-100.4 27.2,0 51.5,6.1 72.6,20.1 84.5,55.7 160.7,164.3 140.5,281.2 -15,87.5 -90.2,205.7 -360.2,272.7 -65.5,16.3 -128.3,23.3 -187.8,23.3 -383,0 -630.2,-291.6 -633,-295 l -15.3,12.7 c 2.9,3.5 255.9,302.2 648.3,302.2 61,0 125.3,-7.2 192.6,-23.9 280.9,-69.9 359,-195.3 375.1,-288.6 21.6,-125.7 -59.4,-241.9 -149.2,-301.2 -24.8,-16.4 -52.6,-23.4 -83.4,-23.4"
         style="fill:#fccba3;fill-opacity:1;fill-rule:nonzero;stroke:none"
         id="path198" />
      <path
         d="m 23738.8,9290 v 0 c 0,0.6 0,1.2 0,1.8 0,-0.6 0,-1.2 0,-1.7 v -0.1 m 0.1,11.3 c 0,0.6 0,1.3 0,1.9 v 0 0 c 0,-0.7 0,-1.3 0,-1.9"
         style="fill:#979aa9;fill-opacity:1;fill-rule:nonzero;stroke:none"
         id="path200" />
      <path
         d="m 23745.4,9282.6 -6.7,7.2 0.1,0.2 v 0.1 c 0,0.5 0,1.1 0,1.7 0,3.1 0.1,6.3 0.1,9.5 0,0.6 0,1.2 0,1.9 v 0 c 167.2,147.8 392.6,196.4 616.8,196.4 428.3,0 852.4,-177.5 859,-180.2 l -7.8,-18.5 c -6.5,2.9 -428.1,179.2 -851.5,179.2 -222.9,0 -446.2,-48.8 -610,-197.5"
         style="fill:#fccba3;fill-opacity:1;fill-rule:nonzero;stroke:none"
         id="path202" />
      <path
         d="m 23776.7,8610.8 c -0.1,0.7 -0.2,1.3 -0.3,2 l 0.1,0.4 v 0 h 0.1 l -0.2,-0.4 c 0.1,-0.7 0.2,-1.3 0.3,-2"
         style="fill:#979aa9;fill-opacity:1;fill-rule:nonzero;stroke:none"
         id="path204" />
      <path
         d="m 23788.3,8589.9 -9.1,3.8 c -0.8,5.8 -1.7,11.2 -2.5,17.1 -0.1,0.7 -0.2,1.3 -0.3,2 l 0.2,0.4 h -0.1 c 251.3,574.1 885.8,654.1 1219.9,654.1 126.7,0 210.2,-11.5 213.2,-11.9 l -2.9,-19.6 c -2.9,0.4 -85.5,11.7 -210.7,11.7 -332.4,0 -965.6,-80 -1207.7,-657.6"
         style="fill:#fccba3;fill-opacity:1;fill-rule:nonzero;stroke:none"
         id="path206" />
      <path
         d="m 24316.7,8315.3 c -1.2,0 -2.4,0.1 -3.6,0.1 -9,0.3 -17.8,1.6 -26.4,4 -37.1,10.2 -69.6,39.3 -90,81.6 -40.4,83.7 -38.9,232.8 86.2,400.4 254.9,341.5 927.8,347.4 969.6,347.4 1.1,0 1.7,0 1.9,0 l -0.2,-19.9 c -0.2,0 -0.8,0 -1.8,0 -39.5,0 -704.2,-5.4 -953.6,-339.4 -119.8,-160.5 -122,-301.4 -84.2,-379.8 22.2,-46.1 58.3,-73.1 99.1,-74.4 1,-0.1 2,-0.1 3,-0.1 48.9,0 96.4,36.8 134,103.9 151.6,270.8 563.1,648.2 889.3,648.2 0.2,0 0.3,0 0.5,0 v -19.9 c -0.2,0 -0.3,0 -0.5,0 -318.9,0 -722.7,-371.5 -871.9,-638 -41.3,-73.7 -94.9,-114.1 -151.4,-114.1"
         style="fill:#fccba3;fill-opacity:1;fill-rule:nonzero;stroke:none"
         id="path208" />
      <path
         d="m 26875.6,10663.8 c -0.3,0.4 -0.6,0.8 -0.9,1.2 0.3,-0.4 0.6,-0.8 0.9,-1.2 v 0 m -8.4,10.7 c -2.3,2.8 -4.6,5.7 -7,8.6 0,0 0.1,0 0.1,0 2.3,-2.9 4.6,-5.8 6.9,-8.6 m -1934.8,550.6 v 0 c 5.3,1.9 10.8,3.7 16.3,5.5 -5.5,-1.8 -11,-3.6 -16.3,-5.4 0,-0.1 0,-0.1 0,-0.1"
         style="fill:#979aa9;fill-opacity:1;fill-rule:nonzero;stroke:none"
         id="path210" />
      <path
         d="m 25900,10363 c -35.5,0 -70.1,4.6 -103.5,13.8 -8.4,2.3 -16.7,5 -25,7.9 -133.3,47.1 -240.3,166.4 -317.8,354.9 -121.6,294.4 -403.3,437.1 -521.3,485.5 0,0 0,0 0,0.1 5.3,1.8 10.8,3.6 16.3,5.4 4,1.3 8.1,2.6 12.2,3.8 130.6,-56.9 393.8,-203 511,-487.2 75.5,-183 178.5,-298.7 306.2,-343.7 38.9,-13.6 79.7,-20.5 122,-20.5 78.2,0 161.2,23.3 245.6,69.3 41,22.5 82.8,46.7 123.3,70.2 165.3,95.7 323.6,187.5 467,187.5 42.8,0 84.3,-8.2 124.2,-26.9 2.4,-2.9 4.7,-5.8 7,-8.6 2.5,-3.2 5,-6.3 7.5,-9.5 0.3,-0.4 0.6,-0.8 0.9,-1.2 l -4.9,-8.6 c -42.6,24.2 -87.6,34.6 -134.7,34.6 -138.6,0 -294.4,-90.2 -457.1,-184.5 -40.5,-23.5 -82.5,-47.8 -123.8,-70.4 -87.4,-47.8 -173.7,-71.9 -255.1,-71.9"
         style="fill:#fccba3;fill-opacity:1;fill-rule:nonzero;stroke:none"
         id="path212" />
      <path
         d="m 26898.2,8447 v 0 0 c 0.2,0.5 0.4,0.9 0.6,1.4 -0.2,-0.5 -0.4,-1 -0.6,-1.4"
         style="fill:#979aa9;fill-opacity:1;fill-rule:nonzero;stroke:none"
         id="path214" />
      <path
         d="m 26898.2,8447 c -217.2,581.9 -1222.1,725.9 -1232.5,727.3 l 2.8,19.9 c 10.2,-1.4 1006.7,-144.1 1241.4,-722.8 l -0.1,-0.2 c -3.4,-7.6 -7.3,-15.1 -11,-22.8 -0.2,-0.5 -0.4,-0.9 -0.6,-1.4 v 0"
         style="fill:#fccba3;fill-opacity:1;fill-rule:nonzero;stroke:none"
         id="path216" />
      <path
         d="m 26533.6,7848.4 c 1.8,2.4 3.7,4.8 5.5,7.2 -1.8,-2.4 -3.6,-4.8 -5.5,-7.2 m 8.3,11.1 v 0.2 h 0.1 v 0 l -0.1,-0.2"
         style="fill:#979aa9;fill-opacity:1;fill-rule:nonzero;stroke:none"
         id="path218" />
      <path
         d="m 26523.8,7835.8 -4.7,0.7 c 121.4,853.5 -876.6,1277.6 -886.8,1281.8 l 7.8,18.3 c 9.9,-4.2 1002.1,-425.5 901.9,-1276.9 h -0.1 v -0.2 0 c -0.9,-1.3 -1.9,-2.6 -2.8,-3.9 -1.8,-2.4 -3.7,-4.8 -5.5,-7.2 -3.2,-4.2 -6.5,-8.4 -9.8,-12.6"
         style="fill:#fccba3;fill-opacity:1;fill-rule:nonzero;stroke:none"
         id="path220" />
      <path
         d="m 25984.3,7855.6 c -11,0 -21.7,1.4 -32,4.2 -8.6,2.4 -16.9,5.7 -24.7,10.1 -50.5,28.2 -77,91.1 -74.6,177.4 8.6,305.5 -147.7,831.8 -421.8,995.1 l 10.2,17.1 c 280.3,-167 440.2,-702.4 431.5,-1012.8 -2.2,-78.4 20.6,-135.1 64.3,-159.4 14.6,-8.1 30.7,-12.1 47.5,-12.1 24.4,0 50.5,8.5 75.8,25.2 72.7,47.9 143,170 122.5,369.2 -43.9,425.3 -640.2,777.8 -646.2,781.3 l 10,17.2 c 6.1,-3.6 611,-361.1 655.9,-796.5 21.5,-208 -53.7,-336.7 -131.3,-387.8 -28.3,-18.7 -58.5,-28.2 -87.1,-28.2"
         style="fill:#fccba3;fill-opacity:1;fill-rule:nonzero;stroke:none"
         id="path222" />
      <path
         d="m 26329.5,7609.3 c 0,0.1 0,0.1 0,0.1 l 0.1,0.2 -0.1,-0.2 c 0,0 0,0 0,-0.1"
         style="fill:#979aa9;fill-opacity:1;fill-rule:nonzero;stroke:none"
         id="path224" />
      <path
         d="m 25867,7434.5 c -33.3,0 -64.5,4 -93.5,12 -36.6,10.1 -69.6,26.6 -98.5,49.7 -84.5,66.9 -118.6,203.7 -101.9,406.9 0.9,10.4 1.9,20.7 2.9,30.9 11.4,29.1 22.7,60.6 33.4,93.7 -27.8,-165.3 -45.5,-417.9 77.9,-515.9 52.1,-41.3 113.9,-57.5 178.7,-57.5 228.2,0 493.2,200.1 496.7,202.7 l 5.3,-6.8 c -12.7,-13.9 -25.5,-27.3 -38.4,-40.6 v 0 l -0.1,-0.2 c 0,0 0,0 0,-0.1 -45.6,-30.5 -121.9,-77.3 -209.1,-114.7 -93.6,-40 -178.8,-60.1 -253.4,-60.1"
         style="fill:#fccba3;fill-opacity:1;fill-rule:nonzero;stroke:none"
         id="path226" />
      <path
         d="m 25576,7934 c 14.7,136.5 46.8,251.1 47.1,252.2 l 19.2,-5.3 c -0.5,-1.8 -18.2,-65.1 -32.9,-153.2 -10.7,-33.1 -22,-64.6 -33.4,-93.7"
         style="fill:#f7f7f7;fill-opacity:1;fill-rule:nonzero;stroke:none"
         id="path228" />
      <path
         d="m 26787.6,10766 c -160.3,134.7 -500.3,185.7 -692.4,50.5 -135.1,-95.2 -519.5,-1243.4 -519.5,-1243.4 l -107.8,29.8 c 0,0 303,1104.5 114.8,1375.6 -131.6,189.5 -523.1,279.4 -535.8,281.1 269.5,70.6 573.3,73.1 903.3,-18 369.2,-101.9 642.3,-269 837.4,-475.6"
         style="fill:#fccba2;fill-opacity:1;fill-rule:nonzero;stroke:none"
         id="path230" />
      <path
         d="m 25113.3,9354.1 c 49.8,180.5 236.4,286.4 416.9,236.6 180.4,-49.8 286.3,-236.4 236.5,-416.9 -49.7,-180.4 -236.4,-286.3 -416.8,-236.5 -180.4,49.8 -286.4,236.4 -236.6,416.8"
         style="fill:#ffffff;fill-opacity:1;fill-rule:nonzero;stroke:none"
         id="path232" />
      <path
         d="m 25188.9,9333.3 c 38.3,138.7 181.7,220.1 320.4,181.8 138.7,-38.2 220.2,-181.7 181.9,-320.4 -38.3,-138.7 -181.8,-220.1 -320.5,-181.8 -138.7,38.2 -220.1,181.7 -181.8,320.4"
         style="fill:#efefef;fill-opacity:1;fill-rule:nonzero;stroke:none"
         id="path234" />
      <path
         d="m 26199.8,2418.8 h -1591.1 v 1693 h 1592.1 c 55.7,0 100.8,-45.1 100.8,-100.8 V 2520.6 c 0,-56.2 -45.6,-101.8 -101.8,-101.8"
         style="fill:#ebf3fa;fill-opacity:1;fill-rule:nonzero;stroke:none"
         id="path236" />
      <path
         d="m 25155.5,2418.8 h -1494.7 c -58.8,0 -106.5,47.7 -106.5,106.5 v 1470.2 c 0,64.2 52.1,116.3 116.3,116.3 h 1478 c 54.5,0 98.7,-44.2 98.7,-98.7 V 2510.6 c 0,-50.7 -41.1,-91.8 -91.8,-91.8"
         style="fill:#ffffff;fill-opacity:1;fill-rule:nonzero;stroke:none"
         id="path238" />
      <path
         d="m 24118.1,3629.6 c 0,7.9 -1.3,14.9 -3.9,21 -2.5,6.2 -6.9,11.8 -13,16.9 -6.2,5.1 -14.3,9.7 -24.3,13.9 -10,4.3 -22.6,8.5 -37.6,12.7 -14.6,4.1 -27.6,8.6 -39.3,13.4 -11.6,4.8 -21.4,10.4 -29.6,16.9 -8.1,6.5 -14.3,13.9 -18.8,22.4 -4.4,8.4 -6.6,18.3 -6.6,29.7 0,11.1 2.4,21.2 7.1,30.3 4.8,9.1 11.4,16.9 20,23.5 8.6,6.5 18.8,11.6 30.7,15.2 11.9,3.7 24.9,5.5 39,5.5 15.2,0 28.9,-2.3 41.1,-6.8 12.2,-4.5 22.6,-10.6 31.2,-18.4 8.6,-7.8 15.2,-16.9 19.8,-27.3 4.7,-10.5 7,-21.7 7,-33.7 h -24.6 c 0,9.4 -1.6,18.1 -4.9,26.1 -3.4,7.9 -8.2,14.8 -14.5,20.7 -6.3,5.8 -14.1,10.3 -23.4,13.6 -9.2,3.3 -19.8,5 -31.7,5 -11.8,0 -22.3,-1.5 -31.4,-4.3 -9,-2.8 -16.5,-6.7 -22.5,-11.5 -6,-4.8 -10.6,-10.4 -13.7,-16.9 -3.1,-6.5 -4.6,-13.3 -4.6,-20.6 0,-6.9 1.2,-13.2 3.8,-19 2.6,-5.8 6.9,-11.2 13,-16.2 6.1,-4.9 14,-9.5 24,-13.8 9.9,-4.3 22.1,-8.4 36.6,-12.2 15.2,-4.2 28.7,-8.8 40.6,-13.9 11.9,-5 21.9,-10.9 30.1,-17.7 8.2,-6.8 14.4,-14.6 18.6,-23.5 4.2,-8.8 6.3,-19 6.3,-30.6 0,-11.8 -2.4,-22.3 -7.4,-31.6 -4.9,-9.3 -11.8,-17.2 -20.6,-23.7 -8.8,-6.5 -19.2,-11.4 -31.4,-14.9 -12.1,-3.4 -25.3,-5.1 -39.6,-5.1 -8.6,0 -17.2,0.7 -25.8,2.2 -8.7,1.4 -17,3.6 -25,6.6 -8,3 -15.4,6.8 -22.4,11.4 -6.9,4.6 -12.9,10.1 -18,16.5 -5.1,6.4 -9.1,13.8 -12.1,22 -2.9,8.3 -4.4,17.5 -4.4,27.6 h 24.3 c 0,-12.1 2.6,-22.4 7.6,-30.8 5,-8.3 11.5,-15.1 19.4,-20.3 7.9,-5.1 16.8,-8.8 26.7,-11.2 9.9,-2.3 19.8,-3.4 29.7,-3.4 11.2,0 21.4,1.3 30.6,3.9 9.2,2.5 17.1,6.2 23.6,10.9 6.5,4.8 11.5,10.5 15,17.2 3.5,6.6 5.3,14.1 5.3,22.3"
         style="fill:#699dee;fill-opacity:1;fill-rule:nonzero;stroke:none"
         id="path240" />
      <path
         d="m 24327.4,3585.8 c -6.7,-9.8 -15.7,-17.4 -26.8,-22.9 -11.2,-5.5 -25,-8.2 -41.5,-8.2 -10.6,0 -20.1,1.5 -28.7,4.5 -8.6,2.9 -16,7.6 -22.2,14.1 -6.2,6.5 -11,14.8 -14.4,25.1 -3.3,10.2 -5,22.6 -5,37.3 v 137.2 h 23.6 v -137.6 c 0,-11.5 1.3,-21.1 3.9,-28.7 2.7,-7.7 6.2,-13.8 10.7,-18.4 4.5,-4.7 9.7,-8 15.8,-9.9 6,-2 12.3,-3 19.1,-3 9.5,0 17.9,1 25.1,3.2 7.3,2.1 13.5,5 18.8,8.9 5.3,3.8 9.7,8.3 13.1,13.4 3.4,5.2 6.1,10.9 8.1,17.1 v 155 h 23.8 v -214.2 h -23 l -0.4,27.1"
         style="fill:#699dee;fill-opacity:1;fill-rule:nonzero;stroke:none"
         id="path242" />
      <path
         d="m 24426.9,3663.6 c 0,-12.5 1.2,-24.2 3.7,-34.9 2.5,-10.8 6.3,-20.1 11.5,-28.1 5.1,-7.9 11.6,-14.1 19.5,-18.6 7.9,-4.5 17.2,-6.7 28,-6.7 8.2,0 15.6,1 22.1,3 6.5,1.9 12.3,4.7 17.3,8.2 5.1,3.5 9.4,7.6 13.1,12.4 3.7,4.7 6.9,9.9 9.5,15.6 v 99.6 c -2.2,5.6 -5.1,10.9 -8.6,16 -3.5,5 -7.7,9.5 -12.7,13.4 -4.9,3.9 -10.7,7 -17.3,9.3 -6.6,2.3 -14.3,3.5 -23,3.5 -10.9,0 -20.4,-2.3 -28.3,-6.8 -7.9,-4.6 -14.5,-10.8 -19.6,-18.7 -5.2,-8 -9,-17.3 -11.5,-28.2 -2.5,-10.8 -3.7,-22.4 -3.7,-34.8 z m -24,4.2 c 0,16.6 1.9,31.6 5.6,45 3.8,13.4 9.2,24.9 16.4,34.4 7.1,9.5 15.8,16.8 26,22 10.2,5.1 21.8,7.7 34.8,7.7 15.3,0 28.4,-3.1 39.4,-9.2 10.9,-6.2 20,-14.7 27.1,-25.7 l 1.2,30.9 h 22.2 v -210.5 c 0,-13.9 -2.1,-26.3 -6.2,-37.3 -4,-11 -9.8,-20.4 -17.3,-28 -7.5,-7.7 -16.5,-13.6 -27,-17.7 -10.6,-4.1 -22.4,-6.1 -35.5,-6.1 -6.7,0 -13.6,0.8 -20.6,2.3 -7,1.5 -13.7,3.8 -20.3,6.8 -6.5,3 -12.7,6.8 -18.5,11.4 -5.8,4.5 -10.9,9.9 -15.2,16.1 l 13.2,14.3 c 8.7,-10.7 18,-18.5 27.8,-23.5 9.7,-4.9 20.4,-7.4 32,-7.4 10.2,0 19.2,1.6 27.1,4.6 7.8,3.2 14.5,7.6 19.9,13.5 5.4,5.9 9.5,13 12.4,21.4 2.8,8.4 4.2,17.9 4.2,28.6 v 25 c -7.1,-9.9 -16.2,-17.7 -27.1,-23.3 -11,-5.6 -24.1,-8.4 -39.2,-8.4 -12.8,0 -24.3,2.7 -34.5,8 -10.2,5.4 -18.8,12.8 -25.9,22.4 -7.2,9.6 -12.6,21 -16.4,34.4 -3.7,13.3 -5.6,28 -5.6,44.1 v 4.2"
         style="fill:#699dee;fill-opacity:1;fill-rule:nonzero;stroke:none"
         id="path244" />
      <path
         d="m 24698.2,3575.7 c 8.5,0 16.5,1.1 23.8,3.2 7.4,2.2 14,5.2 19.9,9.1 6,3.8 11.1,8.2 15.5,13.3 4.3,5.1 7.8,10.6 10.5,16.6 v 47.1 h -40.6 c -12.2,0 -23,-1.1 -32.6,-3.3 -9.6,-2.1 -17.7,-5.3 -24.3,-9.4 -6.6,-4.1 -11.6,-9.1 -15.1,-14.9 -3.5,-5.9 -5.3,-12.5 -5.3,-19.9 0,-5.8 1.2,-11.3 3.4,-16.4 2.3,-5.1 5.4,-9.5 9.6,-13.2 4.2,-3.8 9.2,-6.8 15.2,-9 5.9,-2.1 12.6,-3.2 20,-3.2 z m 74.4,-17 c -1.3,3.6 -2.3,8.2 -3,13.5 -0.8,5.4 -1.3,10.8 -1.5,16.4 -3.6,-4.7 -7.8,-9 -12.7,-13.1 -4.9,-4.1 -10.4,-7.7 -16.4,-10.7 -6.1,-3.1 -12.8,-5.5 -20,-7.3 -7.3,-1.9 -15.2,-2.8 -23.6,-2.8 -10.4,0 -19.9,1.5 -28.4,4.5 -8.5,3.1 -15.8,7.3 -21.8,12.8 -6,5.5 -10.7,11.9 -14,19.3 -3.3,7.4 -4.9,15.5 -4.9,24.2 0,10.4 2.2,19.8 6.7,28.2 4.5,8.4 11,15.5 19.4,21.4 8.5,5.9 18.7,10.4 30.8,13.5 12.1,3.1 25.6,4.6 40.7,4.6 h 44 v 24.4 c 0,15.3 -4.7,27.3 -14.2,36.1 -9.4,8.8 -23.2,13.2 -41.3,13.2 -8.3,0 -16,-1.1 -22.9,-3.4 -7.1,-2.2 -13.1,-5.3 -18.2,-9.3 -5.1,-3.9 -9,-8.5 -11.8,-13.7 -2.9,-5.3 -4.3,-10.8 -4.3,-16.8 l -23.8,0.2 c 0,8.1 2,15.9 6,23.4 3.9,7.5 9.5,14.2 16.7,20.1 7.2,5.9 15.8,10.6 25.9,14.2 10.1,3.5 21.3,5.3 33.6,5.3 11.4,0 21.8,-1.5 31.4,-4.4 9.6,-2.9 17.8,-7.2 24.6,-13 6.9,-5.8 12.3,-13.1 16.1,-21.8 3.8,-8.7 5.7,-18.9 5.7,-30.5 v -103.8 c 0,-3.7 0.2,-7.5 0.4,-11.5 0.3,-3.9 0.7,-7.8 1.3,-11.5 0.6,-3.7 1.3,-7.2 2.1,-10.6 0.8,-3.3 1.7,-6.3 2.8,-8.8 v -2.3 h -25.4"
         style="fill:#699dee;fill-opacity:1;fill-rule:nonzero;stroke:none"
         id="path246" />
      <path
         d="m 24953.6,3752.7 c -5,1 -10.3,1.4 -16,1.4 -8,0 -15.3,-1.2 -21.8,-3.5 -6.5,-2.4 -12.2,-5.8 -17.1,-10 -5,-4.3 -9.1,-9.4 -12.5,-15.3 -3.4,-5.9 -6,-12.4 -8,-19.5 v -147.1 h -23.6 v 214.2 h 23.2 l 0.4,-34 c 5.8,11.7 13.7,21 23.7,27.8 9.9,6.8 22.2,10.2 36.7,10.2 2.9,0 5.9,-0.3 8.9,-0.8 3,-0.5 5.3,-1.1 6.7,-1.8 l -0.6,-21.6"
         style="fill:#699dee;fill-opacity:1;fill-rule:nonzero;stroke:none"
         id="path248" />
      <path
         d="m 24227.2,3025.4 c 0,106.9 -52.2,187.7 -129.7,187.7 -77.4,0 -127.9,-78.3 -127.9,-187.7 0,-107.8 51.3,-187.8 129.6,-187.8 78.3,0 128,79.2 128,187.8 z m -390.7,0 c 0,170.9 106.1,304.8 262.7,304.8 155.8,0 261,-132.2 261,-304.8 0,-170.9 -105.2,-304.8 -262.7,-304.8 -157.4,0 -261,132.2 -261,304.8"
         style="fill:#699dee;fill-opacity:1;fill-rule:nonzero;stroke:none"
         id="path250" />
      <path
         d="m 24859.5,2840.2 c 0,30.7 -17,57.5 -43.1,57.5 -27.5,0 -41.8,-26.1 -41.8,-57.5 0,-30.7 17,-57.5 43.1,-57.5 27.5,0 41.8,26.8 41.8,57.5 z m -153.5,0 c 0,64.7 45,117 111.7,117 66,0 110.5,-51.7 110.5,-117 0,-64.1 -45.1,-117 -111.8,-117 -66,0 -110.4,51.6 -110.4,117 z m -127.5,233.9 c 0,30.8 -17,57.6 -43.1,57.6 -27.5,0 -41.8,-26.2 -41.8,-57.6 0,-30.7 16.9,-57.5 43.1,-57.5 27.4,0 41.8,26.8 41.8,57.5 z m 226.1,111.8 h 77.8 l -334,-457.5 h -77.7 z m -379.7,-111.8 c 0,64.7 45.1,117 111.8,117 66,0 110.4,-51.6 110.4,-117 0,-64 -45.1,-116.9 -111.7,-116.9 -66,0 -110.5,51.6 -110.5,116.9"
         style="fill:#699dee;fill-opacity:1;fill-rule:nonzero;stroke:none"
         id="path252" />
      <path
         d="m 19073.6,6806.1 81.3,-66.1 c 0,0 222.4,79.8 272.6,-184.5 0,0 13.4,-112.6 -58,-112.9 -71.3,-0.2 -41.9,12.4 -142.9,9.4 -101.1,-3 -184.8,50.3 -199.6,132.3 l -48.3,69.5 94.9,152.3"
         style="fill:#ea8e50;fill-opacity:1;fill-rule:nonzero;stroke:none"
         id="path254" />
      <path
         d="m 19064.4,6664.4 c 64.9,67.7 59.6,117.7 59.6,117.7 0,0 -751.1,615 -827.2,665.1 -51.9,34.1 -605.1,524.5 -863.7,823.5 -128.2,148.3 -287.1,90.7 -468.9,38.6 l -149.7,-43 c -180.7,-51.8 -227.7,-304.6 -79.4,-427.5 417.7,-345.9 1112.5,-735 1242.5,-816.8 322.7,-203 954.5,-444.3 954.5,-444.3 0,0 76.6,28.5 132.3,86.7"
         style="fill:#1e3d70;fill-opacity:1;fill-rule:nonzero;stroke:none"
         id="path256" />
      <path
         d="m 19921.6,2886.2 c 0,0 182.2,-136.6 461.6,-64.4 0,0 225.1,51.3 274.5,-61 0,0 -345.3,-175.4 -432.7,-223.4 -65.9,-36.2 -134.6,-93.3 -183.2,-137.4 -38.5,-34.9 -98.4,-30.2 -131.2,10.1 -15.2,18.7 -32.6,40.9 -51.6,66.8 -53.3,72.1 -177.3,305.2 -177.3,305.2 l 239.9,104.1"
         style="fill:#233862;fill-opacity:1;fill-rule:nonzero;stroke:none"
         id="path258" />
      <path
         d="m 20028.6,2955.6 c 0,0 -111,-255.9 -367.2,-208.9 0,0 -522.9,431.8 -881.5,880.3 -116.5,145.7 -215.6,293.1 -273.9,428 -237.8,550.7 -879.7,1371.9 -1287.8,1788.1 l 1021.1,369.3 c 0,0 327,-657.8 762.2,-1465.9 313.5,-582.3 683.2,-1242.5 1027.1,-1790.9"
         style="fill:#2b478b;fill-opacity:1;fill-rule:nonzero;stroke:none"
         id="path260" />
      <path
         d="M 19001.5,4746.5 18779.9,3627 c -116.5,145.7 -215.6,293.1 -273.9,428 -237.8,550.7 -879.7,1371.9 -1287.8,1788.1 l 1021.1,369.3 c 0,0 327,-657.8 762.2,-1465.9"
         style="fill:#233862;fill-opacity:1;fill-rule:nonzero;stroke:none"
         id="path262" />
      <path
         d="m 18166.9,2737.7 c 0,0 -11.2,-204.2 236.4,-231.5 0,0 141.5,-0.7 141.9,-130.7 l -719.6,-2.3 c 0,0 -20.9,52.5 -25.9,164.7 -3.9,86.3 83.6,311.7 83.6,311.7 l 283.6,-111.9"
         style="fill:#233862;fill-opacity:1;fill-rule:nonzero;stroke:none"
         id="path264" />
      <path
         d="m 17904.4,6212.4 c 0,0 454.8,-499.8 743.6,-1400.2 157.1,-489.9 -288,-1721.7 -374.7,-2149.7 0,0 -298.6,-25.3 -502.7,53.6 0,0 -15.5,883.9 103.9,1565.2 66.8,381.3 -598.9,815.5 -889.8,1504.5 -197.9,468.7 42.8,460.7 338.7,472 l 581,-45.4"
         style="fill:#2b478b;fill-opacity:1;fill-rule:nonzero;stroke:none"
         id="path266" />
      <path
         d="m 17379.3,8442.3 c -253.1,-142.9 -771.2,-11.1 -771.2,-11.1 0,0 210.4,240.5 114.8,627.9 l 198.7,-100.9 213.4,-108.4 c 0,0 13.8,-68.4 23.4,-191.3 2.5,-31.6 4.7,-67 6.2,-105.6 129.9,-39.4 214.7,-110.6 214.7,-110.6"
         style="fill:#ffb07b;fill-opacity:1;fill-rule:nonzero;stroke:none"
         id="path268" />
      <path
         d="m 18307.3,6238.3 c 0,-44.5 -51.3,-65.8 -62.2,-68 -102,-18.6 -387,-129.5 -643.8,-154.9 -216.2,-22.7 -416.9,-1.2 -637.4,43.1 -29.2,5.9 -97.7,24.4 -102.6,52.3 -6.1,30.6 -850.5,1721.5 -194.1,2447.9 15.4,17 145,-13.7 263.5,-41.8 109.5,-25.9 209.9,-11.5 299.5,24.5 l 111.1,-58.5 c 136.5,-76 394.7,-346.2 425,-558.2 15.3,-107.8 77,-187.7 94.8,-282.5 6.6,-35.1 13.4,-69.4 20.3,-102.8 13.4,-65.5 27.3,-127.8 41.6,-187.1 38.6,-160.3 79.3,-298.4 119.3,-417.6 42.6,-126.6 84.4,-232 121.7,-320 48.4,-114.3 89.3,-199.7 114.9,-265 18,-46.1 28.4,-82.2 28.4,-111.4"
         style="fill:#2a4e96;fill-opacity:1;fill-rule:nonzero;stroke:none"
         id="path270" />
      <path
         d="m 18278.9,6349.7 c -1192.1,561.6 -1604.9,1640 -1604.9,1640 0,0 968.5,-357.2 1207.4,-450.3 13.4,-65.5 27.3,-127.8 41.6,-187.1 38.6,-160.3 79.3,-298.4 119.3,-417.6 42.6,-126.6 84.4,-232 121.7,-320 48.4,-114.3 89.3,-199.7 114.9,-265"
         style="fill:#1e3d70;fill-opacity:1;fill-rule:nonzero;stroke:none"
         id="path272" />
      <path
         d="m 17158.4,8658.5 c -248.8,-13.9 -410.7,191.5 -410.7,191.5 0,0 112.6,62.4 173.9,108.2 l 213.4,-108.4 c 0,0 13.8,-68.4 23.4,-191.3"
         style="fill:#ea8e50;fill-opacity:1;fill-rule:nonzero;stroke:none"
         id="path274" />
      <path
         d="m 17264.5,8914 c 0,0 -377.1,-270.6 -542,-33.2 -164.9,237.5 -324.6,362.4 -90.8,545.2 233.7,182.8 343.9,125.1 418.3,59.2 74.3,-65.8 308.3,-494.7 214.5,-571.2"
         style="fill:#ffb07b;fill-opacity:1;fill-rule:nonzero;stroke:none"
         id="path276" />
      <path
         d="m 17089.8,9699.7 c -13.5,91.2 -44,155.4 -44,155.4 0,0 -23.6,-98 -202.8,-84.5 -179.1,13.6 -463,-17.6 -557.7,-221.7 -6,-13 -11.3,-26.4 -16.1,-40.1 -17.1,45.3 -21.3,113.1 -21.3,113.1 -34,-87.9 0,-197.8 0,-197.8 v 0 c -0.5,-3.2 -0.9,-6.4 -1.4,-9.6 -39.5,-33.4 -72.7,-137.3 -72.7,-137.3 11.9,28.9 41,47.8 67,59.5 -0.8,-158.8 63.6,-314.1 176.7,-360.4 165.3,-67.6 164,-16 330.2,-126.3 0,0 44.6,55.4 14.2,92.5 -30.4,37.2 -145.3,91.3 -81.1,145.4 64.2,54.1 87.9,-6.8 111.5,30.4 23.7,37.2 -94.6,145.3 57.5,246.7 152.1,101.4 253.5,243.4 240,334.7"
         style="fill:#233862;fill-opacity:1;fill-rule:nonzero;stroke:none"
         id="path278" />
      <path
         d="m 19001.5,6491.7 c 0,0 201.7,-68 317.9,-65.2 116.3,2.8 318.4,125.1 318.8,133.7 0.4,8.6 -90.8,61.3 -223.2,44.6 -132.4,-16.7 -159.4,3.1 -118.2,19.6 46.3,18.5 79.3,46.2 68,63.8 -6.2,9.8 -72.8,-11.3 -95.4,-18.9 -22.7,-7.5 -79.4,13.2 -126.6,-20.8 -31.4,-22.7 -149.3,-39.7 -149.3,-39.7 l 8,-117.1"
         style="fill:#ffc299;fill-opacity:1;fill-rule:nonzero;stroke:none"
         id="path280" />
      <path
         d="m 19081.2,6557.2 c 35.6,100.3 51.8,145.8 51.8,145.8 0,0 -794.1,614.6 -874.8,667 -54.9,35.7 -602.9,424.1 -873.1,730.8 -134,152.2 -340.9,218 -538.2,171.4 l -162.5,-38.4 c -196.1,-46.3 -253.9,-297.6 -97.6,-424.9 440.2,-358.5 1177.8,-768.6 1315.6,-854.3 342,-212.7 1093.9,-503.9 1093.9,-503.9 0,0 57,27.8 84.9,106.5"
         style="fill:#2a4e96;fill-opacity:1;fill-rule:nonzero;stroke:none"
         id="path282" />
      <path
         d="m 12296.1,7529.8 c -61.7,-54.5 -225.2,132.7 -247.7,157.6 -1.2,2.4 -2.4,3.6 -2.4,3.6 l 49.8,138.6 c 0,0 214.5,8.3 250,-27.2 35.6,-35.6 17.8,-214.5 -49.7,-272.6"
         style="fill:#ed985f;fill-opacity:1;fill-rule:nonzero;stroke:none"
         id="path284" />
      <path
         d="m 12095.8,7829.6 -21.3,-143.4 c 0,0 -9.5,0 -26.1,1.2 -52.1,3.6 -178.9,10.7 -322.3,26.1 -215.7,21.3 -471.7,59.3 -573.6,122.1 -155.2,94.7 -410,385.1 -575.9,675.4 -4.7,7.1 -8.3,14.2 -11.8,21.3 -86.5,154.1 -147,307 -151.7,429 -3.6,74.7 4.7,138.7 20.1,194.3 20.2,73.5 53.4,131.6 87.7,175.4 4.8,7.1 9.5,14.2 16.6,20.2 56.9,67.5 112.6,95.9 112.6,95.9 28.4,11.9 59.2,-2.3 91.2,-36.7 v -1.2 c 26.1,-27.2 54.5,-68.7 81.8,-120.8 1.2,-1.2 2.4,-2.4 2.4,-3.6 5.9,-10.7 11.8,-22.5 18.9,-35.5 2.4,-2.4 3.6,-6 4.8,-8.3 13,-27.3 26,-55.7 39.1,-85.4 145.7,-317.5 301,-798.6 430.1,-942 55.7,-61.6 310.5,-182.5 513.1,-272.6 145.8,-64 264.3,-111.4 264.3,-111.4"
         style="fill:#ed985f;fill-opacity:1;fill-rule:nonzero;stroke:none"
         id="path286" />
      <path
         d="m 14216.4,7664.5 c -4.6,14 -9.4,28 -14.5,42 -283.1,781.9 -1177.3,1189.8 -1962.5,895.8 -778.5,-291.6 -1182.4,-1150.3 -903,-1928.8 1.3,-3.7 2.7,-7.4 4,-11 150.4,-409.2 160.9,-855.1 37,-1274.4 -138.4,-468.7 -132.2,-983.6 51.4,-1476.6 448.1,-1203.3 1798.9,-1822.5 3017,-1383.5 1229.7,443.1 1871.3,1790.5 1433.2,3010.9 -178.9,498.6 -510.4,898.9 -923.8,1168 -348.5,226.9 -609.1,563.8 -738.8,957.6"
         style="fill:#82b378;fill-opacity:1;fill-rule:nonzero;stroke:none"
         id="path288" />
      <path
         d="m 14117.8,7572.3 c -4.3,13.1 -8.9,26.2 -13.6,39.3 -264.7,731.2 -1089.9,1116.6 -1811.1,846.3 -715,-268 -1082.3,-1067.3 -821,-1795.2 1.2,-3.5 2.5,-6.9 3.7,-10.3 140.6,-382.7 152.6,-798.9 40.8,-1189.5 -125,-436.6 -116.5,-917.2 55,-1378.2 418.8,-1125.4 1665.5,-1710.3 2784.3,-1307.1 1129.6,407.1 1713,1661.1 1303.4,2802.4 -167.3,466.2 -474.5,841.5 -856.5,1094.8 -322,213.6 -563.6,529.3 -685,897.5"
         style="fill:#cee085;fill-opacity:1;fill-rule:nonzero;stroke:none"
         id="path290" />
      <path
         d="m 14788.3,5091.7 c 207.9,-579.3 -93.1,-1217.4 -672.4,-1425.4 -31.2,-11.1 -62.4,-20.8 -93.7,-29.1 -552.9,-145.7 -1135,153.4 -1331.7,701.5 -131.2,365.5 -59.8,754.3 156.2,1043.8 126.4,169.4 302.4,304.9 516.2,381.6 579.3,208 1217.5,-93.1 1425.4,-672.4"
         style="fill:#f99746;fill-opacity:1;fill-rule:nonzero;stroke:none"
         id="path292" />
      <path
         d="m 14178.6,4681.2 c 131.2,-365.6 59.8,-754.6 -156.4,-1044 -552.9,-145.7 -1135,153.4 -1331.7,701.5 -131.2,365.5 -59.8,754.3 156.2,1043.8 552.9,146.1 1135.1,-153 1331.9,-701.3"
         style="fill:#ed7d2b;fill-opacity:1;fill-rule:nonzero;stroke:none"
         id="path294" />
      <path
         d="M 10543.6,2665.3 10387,2607 c 0,0 -680.11,943.3 -763.85,1773.2 -14.96,148.2 -9.97,291.7 22.38,424.3 0,0 -6.65,38 -18.28,105.1 -5.37,31.3 -12.03,69 -19.56,112.2 -22.12,126.7 -52.55,300.1 -87.32,497.5 -80.03,454.2 -183.71,1034.8 -264.25,1461.7 l 42.19,13.5 456.52,147.3 94.34,299.7 339.93,89.5 c 0,0 75.9,-148.6 143.8,-850.3 12.5,-92 23.9,-193.6 32.5,-303.6 26.5,-336 28.4,-752.7 -32.4,-1229.2 -15.5,-122 -35.2,-247.9 -59.7,-377.3 -17.9,-94.8 -20.5,-224.1 -13,-372.5 34.3,-678.4 283.3,-1732.8 283.3,-1732.8"
         style="fill:#2b478b;fill-opacity:1;fill-rule:nonzero;stroke:none"
         id="path296" />
      <path
         d="M 10365.4,6377.1 9627.25,4909.6 c -5.37,31.3 -12.03,69 -19.56,112.2 -22.12,126.7 -52.55,300.1 -87.32,497.5 -80.03,454.2 -183.71,1034.8 -264.25,1461.7 l 42.19,13.5 456.52,147.3 94.34,299.7 339.93,89.5 c 0,0 75.9,-148.6 143.8,-850.3 12.5,-92 23.9,-193.6 32.5,-303.6"
         style="fill:#233862;fill-opacity:1;fill-rule:nonzero;stroke:none"
         id="path298" />
      <path
         d="m 10040.7,7342.6 -17.1,146.6 c -286.31,-76.1 -1051.21,212.5 -1051.21,212.5 0,0 -277.34,-243.8 -240.93,-828.2 17.78,-285.2 50.24,-1497.3 84.15,-1855.9 12.25,-130 22.99,-222.5 27.37,-259.5 l 0.09,-0.3 c 1.34,-11.3 -2.59,-21.9 -8.32,-31.8 -49.92,-84.7 -91.25,-172.9 -125.16,-263.2 -332.8,-886.8 51.26,-1979 51.26,-1979 l 99.67,40.2 c 0,0 218.55,1215.4 396.14,1752.4 30.15,91.1 59.04,162.6 85.53,205.4 77.2,124.6 148.86,328.2 213.9,570.4 122.92,457.9 221.86,1053.5 287.71,1513.2 9.08,-0.4 196.9,777.2 196.9,777.2"
         style="fill:#2b478b;fill-opacity:1;fill-rule:nonzero;stroke:none"
         id="path300" />
      <path
         d="m 10587.6,9120 c -89.9,-41.7 -198.4,-70 -329.7,-77.2 -492.21,-27 -603.94,404.5 -624.26,690.8 70.94,25.7 133.08,23.3 168.87,21.4 34.9,-1.9 71.34,-5.5 101.38,-9.2 60.21,31.4 168.41,184.2 230.91,439.8 l 21.2,-9.9 355.1,-166.9 c 0,0 -37.7,-115.6 -65.6,-226.2 -21.7,-86.5 -37.3,-170.2 -24.2,-193.5 28,-11.4 44.7,-18.6 44.7,-18.6 l 0.1,-0.4 c 3.6,-9 80.8,-205.8 121.5,-450.1"
         style="fill:#ffb27d;fill-opacity:1;fill-rule:nonzero;stroke:none"
         id="path302" />
      <path
         d="m 10710.7,8797.1 c -3.7,-9.9 -7.8,-19.5 -12.3,-29.3 -124.6,-268.5 -355.4,-1380.5 -355.4,-1380.5 32.9,-200 -1502.61,39.2 -1506.57,221.3 -54.08,193 191.88,503.1 330.59,658.7 17.38,19.6 32.98,40.5 46.53,62.7 34.26,55.4 56,118.1 62.9,183.5 27.24,258.1 16.88,499.9 19.17,647 h 0.01 c 27.1,20.1 53.31,38.6 77.72,56.3 37.33,27.2 70.31,52.7 94.6,78.5 26.72,28.1 43.47,56.9 45.38,89.3 1.42,24.6 0.64,49.8 -1.91,75 -1.15,11.8 -2.68,23.7 -4.48,35.6 -19.17,124.9 -71.33,238.2 -71.33,238.2 132.06,53.4 366.9,21.6 366.9,21.6 0,0 -0.25,-13.1 -0.38,-34.4 -0.77,-85.8 0,-306 27.48,-347.7 34.39,-51.9 663.49,-279.4 696.69,-208.9 32.8,69.3 -56.8,393.9 -60.2,406.1 l -0.1,0.4 c 210.7,-82.7 286,-152.1 286,-152.1 -127,-82.3 56.9,-360.9 -41.3,-621.3"
         style="fill:#f99746;fill-opacity:1;fill-rule:nonzero;stroke:none"
         id="path304" />
      <path
         d="m 10286.9,11116.8 c -0.7,21.4 -17.3,251.3 -367.5,263.3 0,0 172.2,-20.5 202,-96.2 0,0 -117.3,93.5 -212.78,63.4 -95.5,-30.1 -151.59,-197.4 -152.16,-252.4 -0.56,-55 52.5,-232.5 113.11,-247.5 22.96,-5.8 49.4,-4.2 73.41,-0.1 -16.12,-25.2 -31.93,-53 -47.04,-84 -139.75,-286.9 4.37,-567.2 122.66,-536.3 75.9,19.9 97.4,-109.6 97.4,-109.6 l 737.2,596.8 c 0,0 -270.8,560.3 -566.3,402.6"
         style="fill:#2c3a64;fill-opacity:1;fill-rule:nonzero;stroke:none"
         id="path306" />
      <path
         d="m 10511.1,10008.7 c 0,0 -37.7,-115.5 -65.5,-226.2 -207.6,57.9 -270.7,276.2 -289.6,393.1 l 355.1,-166.9"
         style="fill:#ed985f;fill-opacity:1;fill-rule:nonzero;stroke:none"
         id="path308" />
      <path
         d="m 10554.8,9886.4 c 0,0 -496.6,115 -420.3,423.2 76.4,308.1 63.7,530.5 384,470.2 320.3,-60.4 352.6,-193.2 352.1,-302.2 -0.4,-109.1 -184.6,-613.1 -315.8,-591.2"
         style="fill:#ffb27d;fill-opacity:1;fill-rule:nonzero;stroke:none"
         id="path310" />
      <path
         d="m 10898.6,10652.5 c -53.4,111.7 -116.3,105.8 -155.6,85.9 -233.3,216 -462.2,39.6 -462.2,39.6 -88.1,-212.9 -279.1,-299.8 -279.1,-299.8 0,0 76.3,-78.1 297.5,-76.4 67.5,0.5 135.4,31.5 197.2,74.2 -119.2,-120 -258.9,-193.1 -258.9,-193.1 276.8,53 462.4,373.5 481.4,407.5 23.5,-34.6 68.3,-108.4 72.1,-170.6 5.1,-84.6 -24,-248.9 24.4,-255.1 0,0 163.2,220.3 83.2,387.8"
         style="fill:#2c3a64;fill-opacity:1;fill-rule:nonzero;stroke:none"
         id="path312" />
      <path
         d="m 10752,9418.4 c 0,0 119.6,-208.6 137.5,-262.2 0,0 -155.1,5.9 -217.7,-113.4 0,0 -15,347.5 80.2,375.6"
         style="fill:#f99746;fill-opacity:1;fill-rule:nonzero;stroke:none"
         id="path314" />
      <path
         d="m 9929.58,7760.9 c -302.85,3.2 -559.3,317.7 -716.03,569.1 34.26,55.4 56,118.1 62.9,183.5 27.24,258.1 16.88,499.9 19.17,647 h 0.01 c 27.1,20.1 53.31,38.6 77.72,56.3 37.33,27.2 70.31,52.7 94.6,78.5 248.02,-419.2 872.25,-1538.7 461.63,-1534.4"
         style="fill:#ed7d2b;fill-opacity:1;fill-rule:nonzero;stroke:none"
         id="path316" />
      <path
         d="m 11552.5,7464.7 c -26.3,-20.2 -236.4,-102.3 -316.4,-77.2 -44.7,14.1 -200.2,52.6 -263,68 -24.9,4.7 -114.4,22.2 -114.4,22.2 l 67.5,196.7 c 0,0 2.6,-0.4 8.3,-2.4 25.7,-8.9 75.1,-33.3 139.8,-43 79.8,-11.9 179.3,38.2 231.1,9.8 109.6,-60.1 260.9,0.9 295.8,-31.1 26.2,-24.2 16.8,-92.9 -48.7,-143"
         style="fill:#ffb27d;fill-opacity:1;fill-rule:nonzero;stroke:none"
         id="path318" />
      <path
         d="m 11074.3,7596.2 -41.5,-151.7 c 0,0 -52.1,9.5 -135,24.9 -24.9,4.7 -39.1,8.3 -39.1,8.3 -66.4,13 -145.8,30.8 -232.3,49.8 h -1.2 c -148.1,35.5 -314,78.2 -453.8,125.6 -98.4,34.3 -183.72,71.1 -241.79,107.8 -5.92,3.6 -10.65,7.1 -16.59,11.9 -138.64,100.7 -303.36,396.9 -431.33,714.5 -17.78,43.9 -34.37,87.7 -50.96,130.4 -59.26,158.8 -106.65,315.2 -135.09,450.3 -17.77,80.5 -29.62,154 -31.99,214.5 -1.19,21.3 -2.38,41.4 -1.19,60.4 2.37,343.6 173.01,391 173.01,391 3.55,1.2 7.11,2.4 11.85,3.6 29.62,4.7 60.43,-15.4 92.43,-54.5 40.29,-48.6 82.96,-128 126.8,-224 67.54,-152.9 138.64,-350.8 205,-547.5 36.74,-107.8 72.28,-215.6 107.83,-315.2 20.15,-60.4 40.32,-117.3 59.22,-169.4 36.8,-99.6 69.9,-180.1 99.6,-231.1 18.9,-33.2 73.4,-79.4 145.7,-131.5 125.6,-91.3 309.3,-201.5 469.3,-291.5 66.4,-38 129.1,-72.3 181.3,-100.8 84.1,-46.2 139.8,-75.8 139.8,-75.8"
         style="fill:#ffb27d;fill-opacity:1;fill-rule:nonzero;stroke:none"
         id="path320" />
      <path
         d="m 9666.13,9458.5 c -228.13,62.9 -404.1,-115.2 -404.1,-115.2 2.86,343.1 173.64,390 173.64,390 68.71,28.5 148.33,-90.5 230.46,-274.8"
         style="fill:#f99746;fill-opacity:1;fill-rule:nonzero;stroke:none"
         id="path322" />
      <path
         d="m 9340.28,2402.4 h -788.66 c 0,0 -18.9,120.2 22.3,211.4 39.46,87.5 101.29,127.3 86.49,233.1 50.11,-51.6 131.79,-109.4 245.81,-94 13.96,-22.7 90.17,-143.9 136.84,-177.4 51.53,-37 281.35,-23.8 297.22,-173.1"
         style="fill:#233862;fill-opacity:1;fill-rule:nonzero;stroke:none"
         id="path324" />
      <path
         d="M 11033.6,2402.4 H 10245 c 0,0 -29.5,125.8 22.3,211.4 45.8,75.7 28.2,118.9 -5.7,181.5 35.7,-14.6 81.9,-27.9 132.8,-25 39.3,2.3 80.9,20.1 117.3,41.3 34,-38.7 179.3,-203.5 224.7,-236.1 51.6,-37 281.4,-23.8 297.2,-173.1"
         style="fill:#233862;fill-opacity:1;fill-rule:nonzero;stroke:none"
         id="path326" />
      <path
         d="m 11114.8,7608.9 c 0,0 67.5,44 166.9,77.3 62.1,20.9 143.4,43.4 140.9,20.8 -2.6,-22.6 -130.8,-83 -133.3,-93.1 -2.6,-10 -174.5,-5 -174.5,-5"
         style="fill:#ffb27d;fill-opacity:1;fill-rule:nonzero;stroke:none"
         id="path328" />
      <path
         d="m 15430.4,4602.5 c 527.9,371.5 1004,66.6 1375.5,-461.4 371.5,-527.9 467.8,-1096.2 -60.2,-1467.7 -527.9,-371.5 -1759.9,-359.5 -2017.1,6 -202.7,288.2 173.8,1551.6 701.8,1923.1"
         style="fill:#f77d48;fill-opacity:1;fill-rule:nonzero;stroke:none"
         id="path330" />
      <path
         d="m 16092.8,4485.9 c -19,-13.3 -86.2,-9.4 -86.2,-9.4 0,0 19,64.6 37.9,78 18.9,13.3 45.1,8.7 58.4,-10.2 13.3,-18.9 8.8,-45.1 -10.1,-58.4"
         style="fill:#fbbea3;fill-opacity:1;fill-rule:nonzero;stroke:none"
         id="path332" />
      <path
         d="m 16077.9,4245.8 c -18.9,-13.3 -86.1,-9.4 -86.1,-9.4 0,0 19,64.6 37.9,77.9 18.9,13.3 45.1,8.8 58.4,-10.1 13.3,-19 8.8,-45.1 -10.2,-58.4"
         style="fill:#fbbea3;fill-opacity:1;fill-rule:nonzero;stroke:none"
         id="path334" />
      <path
         d="m 16335.6,4140.8 c -18.9,-13.3 -86.2,-9.4 -86.2,-9.4 0,0 19,64.6 38,77.9 18.9,13.4 45,8.8 58.4,-10.1 13.3,-18.9 8.7,-45.1 -10.2,-58.4"
         style="fill:#fbbea3;fill-opacity:1;fill-rule:nonzero;stroke:none"
         id="path336" />
      <path
         d="m 16403,3783.8 c -18.9,-13.3 -86.1,-9.4 -86.1,-9.4 0,0 19,64.6 37.9,77.9 18.9,13.4 45.1,8.8 58.4,-10.1 13.3,-18.9 8.8,-45.1 -10.2,-58.4"
         style="fill:#fbbea3;fill-opacity:1;fill-rule:nonzero;stroke:none"
         id="path338" />
      <path
         d="m 16648.5,3659.4 c -19,-13.3 -86.2,-9.4 -86.2,-9.4 0,0 19,64.6 37.9,78 19,13.3 45.1,8.7 58.4,-10.2 13.3,-18.9 8.8,-45.1 -10.1,-58.4"
         style="fill:#fbbea3;fill-opacity:1;fill-rule:nonzero;stroke:none"
         id="path340" />
      <path
         d="m 16698.3,3364.1 c -18.9,-13.3 -86.1,-9.4 -86.1,-9.4 0,0 19,64.6 37.9,77.9 18.9,13.3 45.1,8.8 58.4,-10.1 13.3,-19 8.8,-45.1 -10.2,-58.4"
         style="fill:#fbbea3;fill-opacity:1;fill-rule:nonzero;stroke:none"
         id="path342" />
      <path
         d="m 16918.8,3275.3 c -19,-13.3 -86.2,-9.4 -86.2,-9.4 0,0 19,64.6 37.9,77.9 18.9,13.4 45.1,8.8 58.4,-10.1 13.3,-18.9 8.8,-45.1 -10.1,-58.4"
         style="fill:#fbbea3;fill-opacity:1;fill-rule:nonzero;stroke:none"
         id="path344" />
      <path
         d="m 15663.9,4348.7 c -22.6,-15.9 -103,-11.2 -103,-11.2 0,0 22.7,77.2 45.3,93.1 22.7,15.9 53.9,10.5 69.8,-12.1 15.9,-22.6 10.5,-53.9 -12.1,-69.8"
         style="fill:#fbbea3;fill-opacity:1;fill-rule:nonzero;stroke:none"
         id="path346" />
      <path
         d="m 15646.2,4061.8 c -22.6,-15.9 -103,-11.2 -103,-11.2 0,0 22.7,77.2 45.3,93.1 22.7,15.9 53.9,10.5 69.8,-12.2 15.9,-22.6 10.5,-53.8 -12.1,-69.7"
         style="fill:#fbbea3;fill-opacity:1;fill-rule:nonzero;stroke:none"
         id="path348" />
      <path
         d="m 15954,3936.3 c -22.6,-15.9 -102.9,-11.2 -102.9,-11.2 0,0 22.7,77.2 45.3,93.2 22.6,15.9 53.8,10.4 69.8,-12.2 15.9,-22.6 10.4,-53.8 -12.2,-69.8"
         style="fill:#fbbea3;fill-opacity:1;fill-rule:nonzero;stroke:none"
         id="path350" />
      <path
         d="m 16034.6,3509.8 c -22.6,-15.9 -103,-11.2 -103,-11.2 0,0 22.7,77.2 45.4,93.1 22.6,15.9 53.8,10.5 69.7,-12.1 15.9,-22.7 10.5,-53.9 -12.1,-69.8"
         style="fill:#fbbea3;fill-opacity:1;fill-rule:nonzero;stroke:none"
         id="path352" />
      <path
         d="m 16327.9,3361.2 c -22.7,-15.9 -103,-11.2 -103,-11.2 0,0 22.7,77.2 45.3,93.1 22.7,15.9 53.9,10.5 69.8,-12.2 15.9,-22.6 10.5,-53.8 -12.1,-69.7"
         style="fill:#fbbea3;fill-opacity:1;fill-rule:nonzero;stroke:none"
         id="path354" />
      <path
         d="m 16387.5,3008.3 c -22.6,-15.9 -103,-11.2 -103,-11.2 0,0 22.7,77.2 45.3,93.1 22.7,15.9 53.9,10.5 69.8,-12.1 15.9,-22.7 10.5,-53.9 -12.1,-69.8"
         style="fill:#fbbea3;fill-opacity:1;fill-rule:nonzero;stroke:none"
         id="path356" />
      <path
         d="m 16650.8,2902.2 c -22.6,-15.9 -102.9,-11.2 -102.9,-11.2 0,0 22.7,77.2 45.3,93.1 22.6,15.9 53.8,10.5 69.7,-12.1 16,-22.6 10.5,-53.9 -12.1,-69.8"
         style="fill:#fbbea3;fill-opacity:1;fill-rule:nonzero;stroke:none"
         id="path358" />
      <path
         d="m 14912.3,3367.3 c -12.2,-8.6 -55.4,-6.1 -55.4,-6.1 0,0 12.2,41.5 24.4,50.1 12.1,8.6 28.9,5.6 37.5,-6.5 8.5,-12.2 5.6,-29 -6.5,-37.5"
         style="fill:#fbbea3;fill-opacity:1;fill-rule:nonzero;stroke:none"
         id="path360" />
      <path
         d="m 14902.7,3213 c -12.1,-8.5 -55.3,-6 -55.3,-6 0,0 12.2,41.5 24.4,50.1 12.1,8.5 28.9,5.6 37.5,-6.6 8.5,-12.1 5.6,-28.9 -6.6,-37.5"
         style="fill:#fbbea3;fill-opacity:1;fill-rule:nonzero;stroke:none"
         id="path362" />
      <path
         d="m 15068.2,3145.6 c -12.1,-8.6 -55.3,-6 -55.3,-6 0,0 12.2,41.5 24.4,50 12.1,8.6 28.9,5.7 37.5,-6.5 8.5,-12.2 5.6,-28.9 -6.6,-37.5"
         style="fill:#fbbea3;fill-opacity:1;fill-rule:nonzero;stroke:none"
         id="path364" />
      <path
         d="m 15111.5,2916.3 c -12.1,-8.6 -55.3,-6 -55.3,-6 0,0 12.2,41.5 24.4,50 12.1,8.6 28.9,5.7 37.5,-6.5 8.5,-12.2 5.6,-29 -6.6,-37.5"
         style="fill:#fbbea3;fill-opacity:1;fill-rule:nonzero;stroke:none"
         id="path366" />
      <path
         d="m 15269.2,2836.4 c -12.2,-8.5 -55.4,-6 -55.4,-6 0,0 12.3,41.5 24.4,50 12.2,8.6 29,5.7 37.5,-6.5 8.6,-12.1 5.7,-28.9 -6.5,-37.5"
         style="fill:#fbbea3;fill-opacity:1;fill-rule:nonzero;stroke:none"
         id="path368" />
      <path
         d="m 15301.2,2646.7 c -12.1,-8.6 -55.3,-6 -55.3,-6 0,0 12.2,41.5 24.4,50 12.1,8.6 28.9,5.7 37.5,-6.5 8.5,-12.1 5.6,-28.9 -6.6,-37.5"
         style="fill:#fbbea3;fill-opacity:1;fill-rule:nonzero;stroke:none"
         id="path370" />
      <path
         d="m 15442.8,2589.7 c -12.2,-8.6 -55.3,-6 -55.3,-6 0,0 12.2,41.5 24.3,50 12.2,8.6 29,5.6 37.5,-6.5 8.6,-12.2 5.7,-29 -6.5,-37.5"
         style="fill:#fbbea3;fill-opacity:1;fill-rule:nonzero;stroke:none"
         id="path372" />
      <path
         d="m 15117.7,3672.3 c -15.8,-11.1 -71.7,-7.8 -71.7,-7.8 0,0 15.8,53.7 31.5,64.8 15.8,11.1 37.6,7.3 48.6,-8.4 11.1,-15.8 7.3,-37.5 -8.4,-48.6"
         style="fill:#fbbea3;fill-opacity:1;fill-rule:nonzero;stroke:none"
         id="path374" />
      <path
         d="m 15105.4,3472.4 c -15.8,-11.1 -71.7,-7.8 -71.7,-7.8 0,0 15.8,53.8 31.5,64.9 15.8,11 37.5,7.3 48.6,-8.5 11.1,-15.7 7.3,-37.5 -8.4,-48.6"
         style="fill:#fbbea3;fill-opacity:1;fill-rule:nonzero;stroke:none"
         id="path376" />
      <path
         d="m 15319.8,3385 c -15.8,-11 -71.7,-7.8 -71.7,-7.8 0,0 15.8,53.8 31.5,64.9 15.8,11.1 37.6,7.3 48.6,-8.5 11.1,-15.7 7.4,-37.5 -8.4,-48.6"
         style="fill:#fbbea3;fill-opacity:1;fill-rule:nonzero;stroke:none"
         id="path378" />
      <path
         d="m 15375.9,3087.9 c -15.7,-11.1 -71.7,-7.8 -71.7,-7.8 0,0 15.8,53.8 31.6,64.9 15.7,11.1 37.5,7.3 48.6,-8.5 11.1,-15.7 7.3,-37.5 -8.5,-48.6"
         style="fill:#fbbea3;fill-opacity:1;fill-rule:nonzero;stroke:none"
         id="path380" />
      <path
         d="m 15580.2,2984.4 c -15.8,-11.1 -71.7,-7.8 -71.7,-7.8 0,0 15.8,53.8 31.5,64.9 15.8,11 37.6,7.3 48.6,-8.5 11.1,-15.7 7.3,-37.5 -8.4,-48.6"
         style="fill:#fbbea3;fill-opacity:1;fill-rule:nonzero;stroke:none"
         id="path382" />
      <path
         d="m 15621.7,2738.6 c -15.7,-11.1 -71.7,-7.8 -71.7,-7.8 0,0 15.8,53.8 31.6,64.9 15.7,11 37.5,7.3 48.6,-8.5 11.1,-15.7 7.3,-37.5 -8.5,-48.6"
         style="fill:#fbbea3;fill-opacity:1;fill-rule:nonzero;stroke:none"
         id="path384" />
      <path
         d="m 15805.1,2664.7 c -15.7,-11.1 -71.7,-7.8 -71.7,-7.8 0,0 15.8,53.8 31.6,64.9 15.7,11.1 37.5,7.3 48.6,-8.5 11.1,-15.7 7.3,-37.5 -8.5,-48.6"
         style="fill:#fbbea3;fill-opacity:1;fill-rule:nonzero;stroke:none"
         id="path386" />
      <path
         d="m 15348.4,3987 c -19.1,-13.5 -87.2,-9.5 -87.2,-9.5 0,0 19.2,65.4 38.4,78.9 19.2,13.5 45.6,8.9 59.1,-10.3 13.5,-19.2 8.9,-45.7 -10.3,-59.1"
         style="fill:#fbbea3;fill-opacity:1;fill-rule:nonzero;stroke:none"
         id="path388" />
      <path
         d="m 15333.5,3743.8 c -19.2,-13.5 -87.3,-9.5 -87.3,-9.5 0,0 19.2,65.4 38.4,78.9 19.2,13.5 45.7,8.9 59.1,-10.3 13.5,-19.2 8.9,-45.6 -10.2,-59.1"
         style="fill:#fbbea3;fill-opacity:1;fill-rule:nonzero;stroke:none"
         id="path390" />
      <path
         d="m 15594.3,3637.5 c -19.1,-13.5 -87.2,-9.5 -87.2,-9.5 0,0 19.2,65.4 38.4,78.9 19.2,13.5 45.6,8.9 59.1,-10.3 13.5,-19.1 8.9,-45.6 -10.3,-59.1"
         style="fill:#fbbea3;fill-opacity:1;fill-rule:nonzero;stroke:none"
         id="path392" />
      <path
         d="m 15662.6,3276 c -19.1,-13.5 -87.2,-9.5 -87.2,-9.5 0,0 19.2,65.4 38.4,78.9 19.1,13.5 45.6,8.9 59.1,-10.3 13.5,-19.1 8.9,-45.6 -10.3,-59.1"
         style="fill:#fbbea3;fill-opacity:1;fill-rule:nonzero;stroke:none"
         id="path394" />
      <path
         d="m 15911.2,3150.1 c -19.2,-13.5 -87.3,-9.5 -87.3,-9.5 0,0 19.2,65.4 38.4,78.9 19.2,13.5 45.6,8.9 59.1,-10.3 13.5,-19.2 8.9,-45.6 -10.2,-59.1"
         style="fill:#fbbea3;fill-opacity:1;fill-rule:nonzero;stroke:none"
         id="path396" />
      <path
         d="m 15961.7,2851 c -19.2,-13.5 -87.3,-9.5 -87.3,-9.5 0,0 19.3,65.4 38.4,78.9 19.2,13.5 45.7,8.9 59.2,-10.3 13.4,-19.1 8.8,-45.6 -10.3,-59.1"
         style="fill:#fbbea3;fill-opacity:1;fill-rule:nonzero;stroke:none"
         id="path398" />
      <path
         d="m 16184.8,2761.1 c -19.1,-13.5 -87.2,-9.5 -87.2,-9.5 0,0 19.2,65.4 38.4,78.9 19.2,13.5 45.6,8.9 59.1,-10.3 13.5,-19.1 8.9,-45.6 -10.3,-59.1"
         style="fill:#fbbea3;fill-opacity:1;fill-rule:nonzero;stroke:none"
         id="path400" />
      <path
         d="m 16748.1,4166.4 c 0,0 400.7,320.2 797.6,157.1 0,0 -41.1,-48.1 -70.6,-68.8 -29.5,-20.8 -311.4,129.2 -715.7,-142.1 l -11.3,53.8"
         style="fill:#649b57;fill-opacity:1;fill-rule:nonzero;stroke:none"
         id="path402" />
      <path
         d="m 16800.4,4181.3 c 0,0 -117.1,311.2 -398.3,390.1 0,0 184.9,-180.8 200.5,-235.9 0,0 -75.9,32.6 -200.8,-38.8 0,0 205.9,-43.6 247.1,-163.3 41.3,-119.8 8.6,-341.2 8.6,-341.2 0,0 168.7,79.4 169.1,168.6 0,0 155.6,-114.9 243.8,-344.1 0,0 -37.9,349.3 -270,564.6"
         style="fill:#649b57;fill-opacity:1;fill-rule:nonzero;stroke:none"
         id="path404" />
      <path
         d="M 29813.4,2340.2 H 2990.14 c -17.41,0 -31.65,14.2 -31.65,31.6 v 13.7 c 0,17.4 14.24,31.7 31.65,31.7 H 29813.4 c 17.4,0 31.6,-14.3 31.6,-31.7 v -13.7 c 0,-17.4 -14.2,-31.6 -31.6,-31.6"
         style="fill:#2e3552;fill-opacity:1;fill-rule:nonzero;stroke:none"
         id="path406" />
      <path
         d="m 15247.1,3001.9 c 0,-319.3 -306.7,-578.1 -685,-578.1 -378.3,0 -685,258.8 -685,578.1 0,319.4 306.7,578.2 685,578.2 378.3,0 685,-258.8 685,-578.2"
         style="fill:#2a4e96;fill-opacity:1;fill-rule:nonzero;stroke:none"
         id="path408" />
      <path
         d="m 15015.9,3210.9 c 0,-82.6 -79.3,-149.5 -177.1,-149.5 -97.8,0 -177.1,66.9 -177.1,149.5 0,82.6 79.3,149.5 177.1,149.5 97.8,0 177.1,-66.9 177.1,-149.5"
         style="fill:#4673bc;fill-opacity:1;fill-rule:nonzero;stroke:none"
         id="path410" />
    </g>
  </g>
</svg>
